<?xml version="1.0" standalone="no"?>
<!DOCTYPE svg PUBLIC "-//W3C//DTD SVG 20010904//EN"
 "http://www.w3.org/TR/2001/REC-SVG-20010904/DTD/svg10.dtd">
<svg version="1.0" xmlns="http://www.w3.org/2000/svg"
 width="768.000000pt" height="768.000000pt" viewBox="0 0 768.000000 768.000000"
 preserveAspectRatio="xMidYMid meet">
<metadata>
Created by potrace 1.14, written by Peter Selinger 2001-2017
</metadata>
<g transform="translate(0.000000,768.000000) scale(0.100000,-0.100000)"
fill="#000000" stroke="none">
<path d="M3785 5982 c-3 -3 -11 -7 -18 -8 -7 -1 -31 -9 -55 -18 -23 -8 -46
-16 -50 -17 -4 -1 -17 -5 -30 -10 -12 -5 -26 -8 -30 -7 -4 1 -17 -3 -28 -10
-12 -6 -24 -8 -28 -5 -3 3 -6 1 -6 -7 0 -10 -4 -10 -17 1 -11 10 -14 10 -9 2
4 -7 2 -13 -3 -13 -18 0 -19 0 -56 -16 -20 -8 -41 -12 -48 -8 -7 4 -8 3 -4 -2
8 -9 -68 -35 -110 -38 -12 0 -19 -3 -17 -6 8 -8 -318 -110 -329 -103 -6 3 -7
1 -3 -5 4 -7 1 -12 -8 -12 -17 0 -223 -66 -246 -79 -8 -4 -23 -7 -32 -5 -10 1
-18 -2 -18 -7 0 -5 -8 -9 -17 -9 -10 0 -30 -6 -44 -13 -14 -8 -35 -12 -48 -10
-12 2 -20 -1 -17 -6 3 -5 -11 -12 -32 -17 -40 -8 -40 -8 -62 -17 -76 -29 -110
-38 -121 -32 -7 5 -10 4 -6 -2 4 -7 -117 -52 -183 -69 -3 0 -12 -3 -20 -7 -28
-11 -105 -31 -117 -30 -7 0 -10 -3 -7 -8 3 -5 -1 -9 -8 -10 -23 -1 -41 -6
-138 -39 -52 -18 -101 -33 -107 -33 -7 0 -13 -4 -13 -9 0 -4 -3 -7 -7 -7 -26
4 -45 -6 -84 -43 -24 -22 -36 -38 -25 -34 15 5 14 0 -9 -29 -15 -20 -28 -42
-29 -48 -4 -26 -30 -56 -41 -47 -7 6 -11 2 -11 -10 0 -10 4 -16 9 -13 5 3 4
-4 -2 -16 -7 -11 -14 -21 -17 -21 -3 0 -3 4 1 9 3 5 0 13 -7 17 -7 4 -10 4 -6
-1 4 -4 3 -17 -3 -28 -9 -15 -8 -18 3 -11 10 6 11 5 1 -8 -7 -8 -9 -18 -5 -22
4 -4 2 -7 -3 -6 -24 5 -34 -1 -30 -20 2 -12 -5 -30 -15 -40 -11 -11 -20 -23
-20 -27 0 -23 -13 -44 -25 -39 -8 3 -11 -2 -8 -15 3 -11 -1 -21 -11 -25 -9 -3
-13 -11 -9 -17 4 -6 0 -8 -11 -4 -14 6 -15 4 -5 -15 10 -19 9 -20 -10 -15 -14
3 -19 1 -14 -6 9 -15 4 -47 -10 -67 -9 -12 -9 -13 3 -2 19 17 30 15 30 -5 0
-15 2 -16 9 -3 6 8 7 18 4 24 -3 5 -1 6 6 2 6 -4 9 -13 5 -19 -3 -7 1 -3 10 7
13 17 18 17 33 5 11 -9 14 -10 9 -1 -4 6 -3 12 1 12 5 0 16 15 24 33 28 58
242 422 251 425 4 2 8 10 8 18 0 9 5 12 10 9 6 -3 10 -1 10 5 0 6 5 8 10 5 6
-3 10 -1 10 6 0 7 3 9 6 6 4 -3 15 -2 26 4 14 8 24 7 36 -3 14 -11 15 -11 9 6
-6 14 -4 17 8 12 8 -3 15 0 15 7 0 8 4 6 10 -3 8 -13 10 -12 10 4 0 16 2 17
17 5 11 -9 14 -10 10 -2 -8 13 35 30 62 24 7 -1 11 2 7 7 -3 5 1 9 9 9 8 0 15
-4 15 -9 0 -4 9 1 21 13 11 11 27 18 35 15 8 -3 14 0 14 6 0 6 6 5 17 -3 9 -8
14 -9 10 -3 -4 7 0 15 9 18 10 4 13 2 8 -7 -4 -6 4 -2 18 11 19 17 28 20 33
11 6 -8 10 -7 17 5 7 12 13 14 28 6 16 -8 18 -8 14 5 -4 8 -2 15 4 15 6 0 13
-6 15 -12 4 -8 6 -7 6 3 1 9 12 19 26 21 13 3 22 2 20 -2 -2 -4 2 -7 10 -7 8
0 12 4 9 8 -9 15 32 29 46 16 10 -9 11 -9 6 1 -7 11 -3 14 27 16 6 1 15 5 18
9 10 14 43 15 58 3 11 -8 13 -8 8 0 -4 7 4 19 18 28 14 9 25 12 25 6 0 -5 -4
-10 -10 -10 -5 0 -10 -5 -10 -12 0 -6 7 -4 18 5 10 10 22 14 27 10 4 -5 5 -2
1 5 -6 10 -3 13 10 10 11 -1 30 5 44 15 13 9 29 17 35 17 5 0 4 -4 -4 -9 -8
-5 -9 -11 -3 -15 6 -3 14 3 17 15 5 14 10 18 14 10 4 -6 15 -9 24 -5 9 3 15
10 12 14 -3 4 2 11 11 14 8 3 12 2 9 -4 -3 -6 1 -7 9 -4 9 3 16 10 16 16 0 5
6 8 13 6 6 -1 23 3 37 10 23 12 24 12 6 -2 -11 -9 -15 -16 -8 -16 6 0 21 10
33 23 12 12 18 16 14 8 -5 -9 1 -8 18 4 15 9 31 14 36 11 5 -4 12 -2 16 4 4 6
10 8 15 5 5 -3 11 -1 15 5 4 6 11 8 16 5 5 -4 9 -1 9 4 0 6 5 11 11 11 5 0 8
-4 5 -8 -3 -5 1 -9 9 -9 8 0 12 3 10 7 -6 9 34 29 65 33 14 1 30 6 37 10 6 4
14 1 16 -5 3 -8 6 -6 6 5 1 9 6 18 11 18 6 1 16 2 23 3 6 1 15 -3 19 -9 5 -6
8 -3 8 6 0 9 7 20 16 23 8 3 12 2 9 -3 -3 -5 -1 -13 5 -16 6 -4 9 -1 8 7 -2 7
5 12 14 12 10 -1 15 3 11 9 -4 6 0 8 10 4 10 -4 17 -1 17 6 0 8 4 6 10 -3 8
-13 10 -12 10 3 0 10 5 15 10 12 6 -4 7 -11 4 -17 -4 -7 -2 -8 5 -4 6 4 9 11
6 16 -3 4 4 10 15 13 10 3 21 0 24 -7 2 -6 5 -3 5 8 1 16 3 17 18 5 14 -12 16
-12 8 0 -6 11 -4 13 9 8 10 -4 15 -3 11 3 -3 6 0 11 7 11 27 3 34 4 55 17 20
11 22 10 16 -5 -5 -15 -3 -15 10 2 9 11 17 16 17 10 0 -5 4 -4 9 4 5 8 20 15
34 15 14 1 31 6 38 12 8 6 26 10 41 9 15 0 24 3 21 9 -4 5 3 7 15 4 12 -4 20
-3 17 2 -6 10 24 22 36 14 5 -3 9 0 9 7 0 8 5 7 17 -2 9 -8 14 -9 10 -3 -4 7
0 14 8 18 8 3 15 0 15 -7 0 -8 3 -9 8 -1 11 17 41 24 48 12 5 -7 2 -8 -7 -3
-8 5 -11 4 -6 0 4 -5 16 -9 27 -10 15 -1 17 1 8 12 -8 11 -7 12 6 7 9 -3 16
-10 16 -15 0 -5 11 -7 25 -5 15 3 23 1 20 -5 -4 -5 -11 -7 -16 -4 -5 4 -9 1
-9 -5 0 -7 7 -10 15 -7 8 4 17 3 19 -2 3 -4 19 -6 36 -3 32 5 38 -5 18 -28
-11 -12 -10 -12 3 -2 9 7 25 9 35 6 17 -6 17 -5 -1 10 -19 17 -19 17 5 4 14
-7 31 -11 38 -10 6 2 12 -2 12 -8 0 -6 -4 -8 -10 -5 -5 3 -10 1 -10 -5 0 -7 8
-9 21 -5 12 4 19 3 16 -2 -3 -5 4 -10 16 -10 15 -2 18 0 9 6 -9 5 -3 8 16 7
17 -1 28 -4 25 -8 -4 -7 28 -13 50 -9 7 1 11 -15 8 -32 -1 -5 3 -6 9 -2 6 3 8
10 6 14 -3 4 1 8 9 8 10 0 11 -5 5 -18 -8 -13 -6 -17 8 -14 9 1 22 0 27 -4 18
-10 35 -10 42 1 4 7 1 8 -7 3 -9 -5 -11 -4 -6 4 4 6 12 9 17 5 5 -3 6 -10 3
-16 -5 -8 -1 -9 10 -5 13 5 17 3 13 -5 -3 -9 8 -13 34 -14 21 -1 46 -4 55 -8
14 -5 14 -9 3 -24 -13 -15 -12 -16 3 -3 10 7 15 17 12 22 -3 5 0 9 5 9 6 0 11
-4 11 -10 0 -5 10 -9 23 -7 12 1 21 -3 20 -8 -1 -6 9 -15 23 -22 13 -6 22 -7
18 -2 -3 5 -1 9 4 9 6 0 12 -7 16 -15 3 -9 12 -12 22 -8 13 5 15 3 9 -7 -5 -8
-4 -11 3 -6 6 4 10 12 8 19 -1 7 -1 9 1 4 3 -4 9 -5 14 -2 5 4 6 -2 2 -12 -6
-16 -5 -17 12 -3 11 9 16 10 11 3 -4 -8 -1 -13 9 -13 10 0 14 5 10 13 -4 6 2
2 13 -10 19 -22 39 -32 28 -15 -3 5 1 9 9 9 8 0 12 -3 10 -7 -2 -4 6 -12 19
-18 17 -8 27 -7 36 1 9 9 11 9 8 -3 -1 -8 2 -15 7 -15 6 0 9 2 8 5 -1 3 8 7
20 7 14 2 17 -1 9 -6 -19 -12 6 -28 41 -26 15 1 27 -3 27 -9 0 -6 5 -5 12 2 7
7 17 12 23 12 5 0 3 -5 -5 -11 -12 -9 -10 -10 8 -6 20 5 21 3 10 -11 -11 -14
-10 -15 7 -8 36 14 50 14 68 -2 19 -17 24 -37 5 -26 -7 4 -8 3 -4 -5 6 -9 11
-9 22 0 12 9 12 15 2 28 -11 14 -11 14 3 4 9 -7 19 -9 23 -5 4 4 7 3 6 -3 -6
-27 0 -36 19 -26 14 8 22 7 31 -4 10 -12 16 -13 27 -4 11 10 12 8 6 -7 -6 -17
-5 -18 12 -4 10 8 16 10 12 3 -7 -12 -3 -13 51 -14 15 0 30 -12 43 -32 l20
-32 -7 28 -7 29 27 -27 c23 -23 29 -25 43 -13 14 11 16 11 11 -3 -5 -13 1 -15
35 -14 23 1 47 -1 52 -4 11 -6 33 -12 52 -13 7 -1 10 -5 7 -10 -3 -4 3 -8 13
-8 14 0 15 -2 4 -9 -10 -7 -7 -9 12 -8 21 2 23 5 14 17 -9 12 -8 13 2 3 7 -6
20 -9 27 -6 9 3 14 -2 14 -16 0 -12 5 -21 11 -21 5 0 8 4 4 9 -3 5 0 13 6 17
8 5 9 3 4 -6 -6 -10 -4 -12 9 -7 9 4 28 0 42 -9 18 -12 24 -13 24 -3 0 7 3 9
6 6 4 -4 1 -13 -5 -21 -9 -11 -9 -16 0 -22 8 -4 9 -3 5 4 -4 7 -3 12 3 12 5 0
12 -4 16 -9 3 -5 26 -8 51 -7 25 1 47 -1 50 -5 2 -5 12 -6 22 -3 14 5 14 4 2
-4 -10 -8 -18 -8 -28 0 -9 8 -16 8 -25 -2 -9 -10 -9 -11 1 -5 8 4 22 -1 34
-12 12 -10 18 -12 14 -5 -4 7 -2 12 6 12 8 0 20 -6 27 -12 10 -11 11 -10 8 2
-2 8 -2 12 0 8 2 -4 12 -4 21 -1 14 4 15 3 2 -6 -13 -9 -13 -12 -1 -23 8 -7
11 -8 8 -2 -4 7 2 14 13 17 11 3 18 1 14 -4 -3 -5 0 -9 5 -9 6 0 11 5 11 11 0
5 5 7 12 3 8 -5 5 -11 -10 -17 -12 -6 -22 -14 -22 -18 0 -4 12 -1 27 6 16 9
31 11 36 6 5 -5 15 -7 22 -5 17 7 29 -13 14 -22 -8 -5 -9 -3 -4 6 5 9 4 11 -4
6 -6 -4 -9 -12 -6 -17 9 -13 32 -11 38 4 4 8 6 9 6 0 1 -6 -6 -18 -14 -26 -13
-13 -13 -16 1 -21 21 -8 31 -7 18 2 -8 5 -7 11 4 22 14 13 15 12 9 -3 -4 -10
-2 -17 5 -17 7 0 4 -6 -7 -13 -14 -11 -15 -16 -5 -22 9 -6 11 -4 5 5 -6 9 -4
11 4 5 7 -4 11 -16 8 -26 -3 -11 -1 -16 4 -13 5 3 12 -2 15 -10 3 -9 10 -13
15 -10 5 3 9 -2 9 -10 0 -10 -6 -13 -17 -9 -13 4 -11 1 4 -11 12 -9 28 -15 34
-14 7 2 13 -3 14 -10 0 -7 7 -17 15 -22 13 -8 13 -11 0 -22 -8 -7 -11 -9 -7
-4 7 10 -10 36 -23 36 -4 0 -11 -7 -14 -16 -5 -14 -4 -15 9 -4 8 7 16 10 16 6
1 -3 3 -10 4 -16 1 -5 3 -15 4 -21 1 -8 5 -8 15 0 10 9 17 7 27 -6 9 -11 10
-14 2 -9 -7 4 -13 2 -13 -3 0 -6 7 -11 16 -11 8 0 12 -5 9 -10 -4 -6 -10 -8
-15 -5 -5 3 -11 1 -15 -4 -3 -6 3 -8 15 -6 11 2 20 -1 20 -6 0 -6 5 -7 10 -4
6 4 10 3 9 -2 -1 -4 -1 -17 0 -28 1 -17 3 -18 11 -5 6 9 10 10 10 3 0 -6 -4
-14 -10 -18 -20 -12 2 -37 29 -31 14 3 20 3 13 0 -6 -3 -9 -11 -6 -16 5 -7 2
-8 -7 -3 -8 5 -11 5 -7 0 4 -4 2 -15 -5 -23 -9 -12 -6 -12 14 1 21 14 26 15
26 2 0 -8 -4 -12 -8 -10 -4 3 -6 -1 -5 -9 2 -16 36 -51 36 -37 0 5 -8 15 -17
20 -10 6 -13 11 -6 11 6 0 15 -5 18 -10 4 -6 10 -8 15 -5 4 3 6 -5 3 -17 -5
-22 -5 -22 9 -4 12 15 17 16 23 6 5 -9 4 -11 -3 -6 -8 5 -10 2 -6 -8 5 -12 9
-13 19 -3 7 7 10 17 7 22 -3 6 2 4 11 -4 11 -9 17 -10 17 -2 0 6 9 11 20 11
18 0 15 8 -24 68 -53 81 -107 169 -161 257 -22 36 -67 107 -100 157 -57 88
-63 93 -115 110 -30 10 -64 20 -75 23 -11 2 -87 25 -170 50 -82 26 -193 59
-245 75 -52 15 -223 67 -380 115 -157 48 -321 97 -365 110 -44 13 -141 42
-215 65 -74 23 -142 43 -150 45 -20 4 -118 34 -150 46 -14 5 -34 11 -45 13
-11 3 -39 11 -62 20 -24 8 -43 13 -43 10 0 -2 -9 0 -21 6 -11 6 -28 13 -37 15
-24 5 -133 38 -224 68 -42 13 -80 22 -83 19z m145 -136 c0 -3 -4 -8 -10 -11
-5 -3 -10 -1 -10 4 0 6 5 11 10 11 6 0 10 -2 10 -4z m337 -113 c0 -8 -4 -10
-12 -3 -7 5 -16 6 -20 2 -5 -4 -5 -2 -2 4 9 15 34 13 34 -3z m103 -19 c0 -8
-19 -13 -24 -6 -3 5 1 9 9 9 8 0 15 -2 15 -3z m170 -50 c0 -8 -19 -13 -24 -6
-3 5 1 9 9 9 8 0 15 -2 15 -3z m325 -103 c-9 -8 -36 -10 -30 -2 2 4 11 8 20 8
8 0 13 -3 10 -6z m468 -145 c4 -10 1 -13 -8 -9 -8 3 -12 9 -9 14 7 12 11 11
17 -5z m401 -127 c-3 -5 -10 -7 -15 -3 -5 3 -7 10 -3 15 3 5 10 7 15 3 5 -3 7
-10 3 -15z m391 -209 c3 -6 -1 -7 -9 -4 -18 7 -21 14 -7 14 6 0 13 -4 16 -10z
m165 -266 c0 -8 -19 -13 -24 -6 -3 5 1 9 9 9 8 0 15 -2 15 -3z"/>
<path d="M4110 5762 c0 -5 7 -9 15 -9 8 0 12 4 9 9 -3 4 -9 8 -15 8 -5 0 -9
-4 -9 -8z"/>
<path d="M4150 5756 c0 -2 7 -7 16 -10 8 -3 12 -2 9 4 -6 10 -25 14 -25 6z"/>
<path d="M4856 5518 c3 -5 10 -6 15 -3 13 9 11 12 -6 12 -8 0 -12 -4 -9 -9z"/>
<path d="M4973 5505 c0 -7 6 -12 14 -11 19 3 21 19 2 21 -9 2 -16 -3 -16 -10z"/>
<path d="M5095 5469 c-4 -6 -4 -13 -1 -16 3 -4 6 -1 6 6 0 7 5 9 12 5 7 -4 8
-3 4 4 -9 15 -13 15 -21 1z"/>
<path d="M5197 5439 c7 -7 15 -10 18 -7 3 3 -2 9 -12 12 -14 6 -15 5 -6 -5z"/>
<path d="M5238 5433 c6 -2 9 -10 6 -15 -4 -7 -2 -8 5 -4 13 9 5 26 -12 25 -9
0 -8 -2 1 -6z"/>
<path d="M2395 5420 c-3 -5 -1 -10 4 -10 6 0 11 5 11 10 0 6 -2 10 -4 10 -3 0
-8 -4 -11 -10z"/>
<path d="M3845 5400 c-3 -5 -4 -14 -1 -18 2 -4 1 -14 -4 -22 -5 -8 -5 -21 1
-31 6 -12 5 -20 -1 -24 -6 -4 -7 -11 -4 -17 4 -5 8 -26 10 -45 5 -54 15 -53
12 0 -2 26 -7 47 -11 47 -5 0 -5 5 -1 12 7 11 14 108 8 108 -2 0 -6 -4 -9 -10z"/>
<path d="M3989 5358 c-1 -24 -3 -55 -5 -70 -1 -16 0 -28 4 -28 4 0 9 32 10 70
2 39 0 70 -3 70 -3 0 -6 -19 -6 -42z"/>
<path d="M3696 5363 c2 -16 6 -53 10 -83 4 -30 7 -63 8 -72 0 -9 4 -14 8 -11
5 2 6 19 3 36 -6 33 -13 108 -14 140 -1 9 -5 17 -10 17 -4 0 -7 -12 -5 -27z"/>
<path d="M4137 5363 c-5 -15 -17 -96 -19 -120 0 -5 -4 -18 -9 -30 -4 -12 -5
-24 0 -27 7 -5 18 42 37 157 6 37 -1 52 -9 20z"/>
<path d="M3554 5338 c11 -68 26 -132 32 -137 7 -7 0 39 -16 117 -13 57 -25 72
-16 20z"/>
<path d="M5469 5357 c6 -8 7 -18 3 -22 -4 -5 -1 -5 6 -1 10 6 10 11 1 22 -6 8
-14 14 -16 14 -3 0 0 -6 6 -13z"/>
<path d="M4286 5352 c-5 -8 -34 -119 -39 -148 -1 -10 -6 -24 -10 -31 -4 -6 -3
-14 3 -18 5 -3 10 0 11 7 1 15 3 24 23 103 22 83 25 95 21 95 -2 0 -6 -3 -9
-8z"/>
<path d="M3409 5308 c4 -17 13 -34 21 -36 12 -4 13 -2 3 9 -7 7 -13 21 -13 30
0 10 -4 20 -9 23 -4 3 -5 -9 -2 -26z"/>
<path d="M5571 5324 c0 -11 3 -14 6 -6 3 7 2 16 -1 19 -3 4 -6 -2 -5 -13z"/>
<path d="M5627 5313 c-4 -3 -7 -11 -7 -17 0 -6 5 -4 11 4 8 11 12 12 16 3 2
-7 9 -13 15 -13 6 0 6 6 -2 15 -14 16 -23 19 -33 8z"/>
<path d="M4422 5293 c-5 -10 -17 -44 -26 -76 -10 -31 -21 -55 -24 -53 -4 2 -7
-9 -8 -25 -1 -15 3 -26 7 -23 5 3 9 11 9 17 0 7 13 48 30 91 27 73 34 113 12
69z"/>
<path d="M3268 5274 c6 -11 11 -23 12 -29 1 -5 7 -21 12 -34 5 -14 6 -31 4
-38 -3 -8 -2 -12 3 -9 9 6 38 -52 33 -66 -1 -5 3 -8 8 -8 14 0 13 4 -9 53 -11
23 -27 64 -37 90 -9 26 -21 50 -26 54 -6 3 -6 -2 0 -13z"/>
<path d="M3430 5246 c0 -9 7 -33 15 -52 8 -20 12 -40 9 -45 -3 -5 0 -9 7 -9 7
0 9 8 4 23 -3 12 -10 37 -15 55 -10 39 -20 53 -20 28z"/>
<path d="M4541 5208 c-12 -29 -22 -55 -22 -58 0 -3 -6 -14 -13 -25 -15 -24
-29 -72 -16 -59 4 5 18 34 31 64 13 30 27 58 32 61 5 3 8 8 6 10 -1 2 1 14 5
27 15 46 -2 32 -23 -20z"/>
<path d="M3977 5230 c-3 -11 -2 -22 3 -25 4 -3 10 6 12 20 6 30 -7 34 -15 5z"/>
<path d="M3136 5210 c3 -14 15 -40 26 -57 11 -18 16 -38 12 -45 -4 -7 -4 -10
1 -6 4 4 14 0 22 -10 11 -15 12 -13 1 13 -6 17 -16 35 -20 41 -5 7 -18 29 -29
50 -12 24 -17 29 -13 14z"/>
<path d="M1553 5185 c0 -8 4 -12 9 -9 5 3 6 10 3 15 -9 13 -12 11 -12 -6z"/>
<path d="M4675 5150 c-14 -27 -34 -66 -45 -85 -22 -39 -26 -60 -9 -50 6 4 8 9
5 12 -3 3 3 18 13 32 10 14 29 49 41 76 13 28 25 53 27 58 2 4 2 7 -1 7 -3 0
-17 -22 -31 -50z"/>
<path d="M3586 5175 c4 -8 8 -15 10 -15 2 0 4 7 4 15 0 8 -4 15 -10 15 -5 0
-7 -7 -4 -15z"/>
<path d="M3006 5145 c4 -11 11 -25 16 -32 6 -7 6 -18 2 -25 -4 -7 -4 -10 1 -6
8 7 65 -74 65 -92 0 -6 5 -10 11 -10 6 0 1 17 -11 38 -13 20 -34 57 -48 82
-29 52 -47 75 -36 45z"/>
<path d="M1519 5113 c-13 -16 -12 -17 4 -4 9 7 17 15 17 17 0 8 -8 3 -21 -13z"/>
<path d="M4806 5096 c-9 -14 -16 -30 -16 -36 0 -5 -5 -10 -11 -10 -5 0 -7 -4
-4 -10 3 -5 2 -10 -3 -10 -9 0 -52 -71 -52 -86 0 -5 12 9 26 31 15 22 34 46
42 53 9 6 12 12 8 12 -4 0 2 16 14 36 25 40 22 58 -4 20z"/>
<path d="M2880 5072 c0 -6 12 -24 26 -41 14 -17 23 -31 19 -31 -3 0 -1 -6 5
-12 38 -46 50 -62 50 -70 0 -4 5 -8 10 -8 6 0 -8 28 -31 63 -57 84 -79 112
-79 99z"/>
<path d="M3206 5055 c4 -8 11 -15 16 -15 6 0 5 6 -2 15 -7 8 -14 15 -16 15 -2
0 -1 -7 2 -15z"/>
<path d="M4897 4970 c-27 -39 -52 -68 -56 -66 -4 3 -8 -4 -8 -15 -1 -10 2 -19
8 -19 5 0 9 4 9 8 0 5 11 22 24 37 13 15 30 40 38 54 7 14 19 31 27 37 8 6 12
16 10 22 -2 7 -26 -20 -52 -58z"/>
<path d="M2756 4988 c21 -34 120 -157 127 -158 9 0 -108 155 -124 166 -8 5 -9
2 -3 -8z"/>
<path d="M3737 4984 c-1 -1 -22 -5 -47 -9 -25 -4 -56 -10 -70 -12 -14 -3 -35
-6 -47 -6 -12 -1 -19 -4 -17 -6 4 -5 -104 -43 -123 -44 -7 0 -13 -4 -13 -8 0
-4 -13 -10 -30 -14 -16 -4 -30 -11 -30 -17 0 -6 -3 -8 -6 -5 -4 3 -18 -2 -32
-13 -13 -11 -28 -17 -33 -14 -5 3 -9 0 -9 -5 0 -6 -6 -11 -14 -11 -8 0 -16 -4
-18 -8 -1 -5 -31 -29 -64 -54 l-62 -45 29 -10 c16 -6 27 -8 24 -3 -5 8 24 25
38 21 5 -1 6 3 3 8 -6 9 31 27 46 23 4 -1 5 5 2 13 -5 11 -2 13 10 9 9 -3 16
-1 16 5 0 18 39 34 55 21 10 -8 15 -8 21 1 4 7 3 9 -4 5 -6 -3 -13 -2 -17 4
-3 5 6 12 20 16 14 3 25 11 25 16 0 6 9 8 20 5 11 -3 18 -1 14 4 -5 8 3 11 22
8 4 0 11 5 15 13 7 10 12 10 28 1 17 -10 18 -9 14 10 -4 18 -3 19 6 7 6 -8 11
-10 11 -4 0 7 11 14 25 16 14 3 25 1 25 -4 0 -5 5 -6 10 -3 6 4 8 10 5 15 -3
4 2 10 10 14 8 3 17 1 21 -5 4 -6 12 -5 22 3 9 7 13 8 9 2 -3 -6 1 -11 9 -11
8 0 13 6 10 13 -3 8 4 11 22 9 15 -2 30 2 34 9 5 8 8 7 8 -3 0 -9 4 -10 13 -4
14 12 47 13 47 2 0 -4 8 -6 18 -4 9 1 24 -2 32 -8 12 -9 13 -9 3 3 -19 21 -16
25 17 25 17 1 30 -3 30 -8 0 -5 -7 -7 -14 -4 -11 4 -13 1 -9 -10 5 -14 9 -13
24 5 15 19 18 19 23 6 4 -12 10 -13 19 -6 15 12 117 11 117 -1 0 -5 7 -7 15
-4 8 4 17 2 20 -3 3 -5 13 -6 22 -3 12 5 14 3 8 -8 -8 -12 -6 -12 8 0 12 9 17
10 17 2 0 -7 4 -10 9 -6 5 3 12 1 16 -5 4 -6 11 -8 16 -4 5 3 16 0 24 -6 8 -6
19 -9 24 -6 12 8 33 -28 23 -39 -4 -5 1 -5 12 -1 13 4 17 2 13 -8 -4 -9 0 -13
11 -11 9 1 23 -2 30 -8 9 -7 17 -6 25 2 9 10 8 11 -7 5 -15 -6 -17 -4 -11 6 6
9 4 11 -5 5 -9 -6 -11 -4 -5 6 6 11 5 11 -5 3 -9 -9 -17 -7 -31 7 -25 25 -24
32 4 17 12 -7 24 -13 27 -13 13 -2 88 -41 115 -59 17 -12 33 -21 37 -21 3 0
10 -3 14 -7 4 -5 2 -8 -4 -8 -7 0 -12 -5 -12 -10 0 -7 6 -7 20 0 14 7 20 7 20
0 0 -5 7 -10 15 -10 8 0 15 -4 15 -10 0 -13 -6 -13 -30 0 -13 7 -21 6 -26 -2
-4 -7 -4 -10 1 -6 11 10 47 -11 40 -23 -4 -5 -1 -8 6 -7 7 2 13 -2 14 -9 0 -6
3 -14 7 -18 9 -9 5 17 -6 33 -4 7 -5 16 -1 20 3 3 10 1 14 -7 5 -7 22 -11 42
-9 l34 3 -80 57 c-115 82 -272 156 -390 183 -16 4 -39 9 -50 11 -64 15 -144
22 -248 21 -64 0 -118 -2 -120 -3z"/>
<path d="M1410 4939 c0 -5 5 -7 10 -4 6 3 10 8 10 11 0 2 -4 4 -10 4 -5 0 -10
-5 -10 -11z"/>
<path d="M5037 4920 c-10 -16 -22 -30 -28 -30 -5 0 -9 -5 -9 -10 0 -6 -13 -24
-30 -42 -16 -17 -30 -38 -30 -46 0 -8 13 3 29 24 16 21 37 48 48 59 29 30 57
75 46 75 -5 0 -17 -13 -26 -30z"/>
<path d="M3950 4929 c0 -5 5 -7 10 -4 6 3 10 8 10 11 0 2 -4 4 -10 4 -5 0 -10
-5 -10 -11z"/>
<path d="M3985 4929 c-4 -6 -5 -12 -2 -15 2 -3 7 2 10 11 7 17 1 20 -8 4z"/>
<path d="M4013 4925 c0 -8 4 -15 9 -15 4 0 8 7 8 15 0 8 -4 15 -8 15 -5 0 -9
-7 -9 -15z"/>
<path d="M3755 4920 c3 -5 8 -10 11 -10 2 0 4 5 4 10 0 6 -5 10 -11 10 -5 0
-7 -4 -4 -10z"/>
<path d="M4050 4916 c7 -7 13 -7 20 0 6 6 3 10 -10 10 -13 0 -16 -4 -10 -10z"/>
<path d="M4150 4900 c0 -5 5 -10 11 -10 5 0 7 5 4 10 -3 6 -8 10 -11 10 -2 0
-4 -4 -4 -10z"/>
<path d="M4190 4880 c6 -11 13 -20 16 -20 2 0 0 9 -6 20 -6 11 -13 20 -16 20
-2 0 0 -9 6 -20z"/>
<path d="M2644 4870 c0 -11 4 -16 9 -11 4 4 35 -19 69 -53 33 -34 57 -54 52
-46 -10 20 -116 130 -124 130 -3 0 -6 -9 -6 -20z"/>
<path d="M3530 4886 c0 -2 7 -7 16 -10 8 -3 12 -2 9 4 -6 10 -25 14 -25 6z"/>
<path d="M6215 4859 c-6 -8 -4 -10 5 -4 10 6 12 4 6 -11 -6 -15 -5 -17 5 -6 9
9 10 15 2 23 -8 8 -13 7 -18 -2z"/>
<path d="M5141 4825 c-13 -19 -30 -35 -39 -35 -8 0 -12 -3 -8 -7 3 -4 -8 -22
-26 -40 -17 -18 -29 -35 -26 -38 3 -3 21 12 41 34 19 22 39 36 43 33 4 -4 4
-2 1 4 -4 6 3 20 14 30 24 22 43 54 32 54 -4 0 -19 -16 -32 -35z"/>
<path d="M4355 4819 c-4 -6 -4 -13 -1 -16 3 -4 6 -1 6 5 0 6 7 9 16 5 13 -5
13 -8 2 -15 -8 -6 -5 -7 12 -2 23 6 24 6 10 -12 -14 -18 -14 -18 3 -5 22 18
22 18 -12 36 -20 10 -32 12 -36 4z"/>
<path d="M4419 4773 c-13 -16 -12 -17 4 -4 16 13 21 21 13 21 -2 0 -10 -8 -17
-17z"/>
<path d="M1276 4741 c-3 -5 2 -15 12 -22 15 -12 16 -12 5 2 -7 9 -10 19 -6 22
3 4 4 7 0 7 -3 0 -8 -4 -11 -9z"/>
<path d="M2564 4725 c-12 -8 -25 -11 -29 -7 -3 4 -5 3 -4 -3 5 -16 -11 -55
-22 -55 -6 0 -7 5 -3 12 5 7 3 8 -6 3 -10 -6 -10 -10 2 -19 8 -6 14 -18 13
-27 -3 -16 3 -18 50 -22 14 -1 25 -7 25 -14 0 -7 16 3 36 21 43 40 49 80 14
108 -27 22 -49 23 -76 3z m-24 -65 c0 -5 -5 -10 -11 -10 -5 0 -7 5 -4 10 3 6
8 10 11 10 2 0 4 -4 4 -10z"/>
<path d="M5196 4724 c-9 -8 -21 -12 -27 -8 -8 5 -9 3 -5 -5 5 -7 0 -18 -10
-26 -11 -8 -14 -15 -9 -15 6 0 3 -5 -5 -11 -11 -8 -9 -9 10 -3 l24 7 -19 -29
c-17 -26 -17 -28 -1 -15 16 13 17 13 14 -4 -3 -21 16 -27 45 -13 12 6 17 5 17
-7 0 -12 3 -12 18 3 28 28 52 65 52 80 0 20 -47 62 -69 62 -11 0 -27 -7 -35
-16z m9 -113 c-9 -8 -36 -10 -30 -2 2 4 11 8 20 8 8 0 13 -3 10 -6z"/>
<path d="M3130 4679 c0 -5 5 -7 10 -4 6 3 10 8 10 11 0 2 -4 4 -10 4 -5 0 -10
-5 -10 -11z"/>
<path d="M3860 4354 c-14 -8 -31 -12 -38 -9 -7 3 -11 1 -7 -4 3 -5 -13 -25
-35 -43 -30 -27 -37 -37 -28 -46 9 -9 9 -15 -1 -24 -11 -11 -12 -10 -6 1 5 9
4 12 -3 7 -6 -4 -9 -13 -5 -21 3 -9 -1 -23 -8 -32 -11 -13 -11 -15 -1 -9 20
12 45 -13 31 -31 -9 -10 -9 -17 -1 -25 19 -19 14 -32 -5 -17 -16 13 -17 12 -4
-3 7 -10 17 -15 22 -12 8 5 13 -10 10 -29 -1 -5 3 -6 9 -2 7 5 4 18 -9 41 -11
19 -16 34 -11 34 5 0 12 -9 15 -20 3 -11 11 -20 16 -20 6 0 8 -4 5 -9 -4 -5 0
-12 6 -14 10 -4 10 -6 0 -6 -7 -1 -11 -5 -7 -10 3 -5 -4 -12 -15 -16 -11 -4
-17 -11 -14 -17 5 -7 1 -9 -9 -5 -9 3 -16 3 -16 -1 3 -21 -2 -32 -13 -26 -8 5
-9 2 -5 -10 6 -14 3 -17 -9 -12 -15 6 -15 4 -3 -11 12 -15 12 -16 -5 -10 -16
6 -17 5 -6 -8 7 -9 10 -18 6 -22 -3 -3 -6 -1 -6 5 0 7 -5 12 -12 12 -6 0 -8
-3 -5 -7 4 -3 -1 -16 -10 -27 -10 -12 -11 -15 -3 -8 8 6 18 12 22 12 10 0 -12
-41 -32 -57 -13 -12 -13 -12 1 -8 9 3 22 -2 30 -11 12 -16 12 -17 -2 -12 -19
7 -19 -26 1 -45 10 -10 11 -9 5 2 -5 9 -4 12 3 7 6 -4 8 -14 5 -23 -4 -10 -2
-14 5 -9 6 3 13 -3 17 -14 6 -19 10 -22 38 -24 6 -1 18 -8 25 -16 8 -8 11 -10
8 -3 -4 6 -1 15 5 19 8 4 9 3 5 -4 -4 -7 -2 -12 4 -12 6 0 9 -4 6 -8 -7 -11
35 -9 54 3 8 5 24 10 36 11 17 2 21 -2 17 -14 -3 -10 2 -7 12 6 11 15 24 22
36 19 11 -3 17 -2 14 3 -2 4 12 16 33 26 20 10 39 22 40 27 2 4 13 7 23 7 11
0 17 -5 14 -10 -3 -6 1 -13 9 -16 9 -3 14 -10 11 -14 -3 -4 2 -13 10 -20 8 -7
15 -9 15 -5 0 5 10 0 23 -11 l22 -19 -19 22 c-10 13 -23 20 -29 16 -6 -3 -7
-1 -3 6 5 8 12 9 20 2 10 -9 133 -8 142 1 1 2 -22 28 -52 58 -78 79 -79 82
-43 122 108 118 104 111 70 149 -29 31 -31 32 -49 16 -10 -9 -24 -17 -30 -17
-6 0 -14 -5 -18 -12 -5 -7 -2 -8 7 -3 8 4 5 -1 -6 -12 -11 -11 -24 -18 -30
-15 -5 3 -7 1 -2 -3 8 -10 -31 -55 -47 -55 -16 0 -106 101 -106 118 0 9 3 13
6 9 7 -6 77 71 95 104 28 53 5 128 -49 161 -43 26 -152 33 -192 12z m75 -104
c-2 -11 1 -19 8 -17 6 1 11 -4 12 -12 0 -8 7 -16 15 -18 13 -4 13 -3 0 6 -8 6
-13 11 -10 12 3 0 13 2 23 4 19 4 17 -3 -20 -52 -28 -39 -33 -39 -63 -13 -30
26 -34 73 -8 89 16 10 19 10 13 -1 -4 -7 1 -5 11 5 23 21 24 21 19 -3z m39
-11 c-6 -11 -24 -2 -24 11 0 5 7 7 15 4 8 -4 12 -10 9 -15z m-70 -281 c-3 -5
2 -8 11 -6 10 2 24 -8 34 -22 9 -13 11 -21 4 -17 -6 4 -15 2 -19 -4 -4 -7 -3
-9 3 -6 13 8 26 -20 17 -36 -3 -7 1 -4 9 6 8 9 17 17 19 17 10 0 5 -54 -6 -65
-20 -18 -65 -35 -71 -25 -3 5 -12 7 -21 3 -24 -9 -64 36 -64 71 0 38 53 108
75 100 8 -4 12 -10 9 -16z m86 -52 c0 -2 -7 -7 -16 -10 -8 -3 -12 -2 -9 4 6
10 25 14 25 6z m25 -45 c3 -5 0 -13 -6 -17 -7 -4 -9 -3 -5 4 3 5 0 13 -6 15
-9 4 -10 6 -1 6 6 1 14 -3 18 -8z m-245 -141 c0 -5 -2 -10 -4 -10 -3 0 -8 5
-11 10 -3 6 -1 10 4 10 6 0 11 -4 11 -10z m94 -28 c3 -5 -1 -9 -9 -9 -8 0 -12
4 -9 9 3 4 7 8 9 8 2 0 6 -4 9 -8z"/>
<path d="M3923 3935 c0 -8 4 -12 9 -9 5 3 6 10 3 15 -9 13 -12 11 -12 -6z"/>
<path d="M1028 4325 c0 -11 -1 -29 0 -40 0 -11 -2 -14 -4 -7 -3 6 -10 10 -15
6 -5 -3 -5 -13 1 -25 6 -10 7 -19 3 -19 -4 0 -1 -5 7 -11 13 -9 13 -10 0 -6
-8 2 -15 9 -15 15 0 6 -7 17 -15 24 -12 11 -12 11 -3 -2 6 -8 9 -23 8 -32 -2
-10 3 -18 11 -18 18 0 18 -14 0 -29 -15 -12 -18 -54 -4 -45 4 3 4 12 1 22 -7
18 -5 17 17 -12 12 -16 12 -18 1 -11 -11 6 -13 1 -9 -23 2 -17 1 -29 -3 -27
-4 3 -9 -2 -13 -10 -3 -8 0 -17 6 -21 7 -4 8 -3 4 4 -5 8 -2 10 9 6 14 -6 14
-8 -2 -21 -10 -8 -13 -12 -7 -9 6 3 10 -4 9 -17 -1 -12 3 -26 9 -30 7 -6 6 -7
-4 -4 -8 2 -15 9 -15 15 0 5 -2 13 -5 16 -4 3 -6 -6 -6 -19 0 -14 6 -25 13
-25 7 0 13 -5 13 -11 0 -5 -5 -7 -12 -3 -6 4 -8 3 -4 -4 3 -6 2 -13 -3 -17 -5
-3 -9 -14 -8 -25 1 -10 5 -17 9 -14 4 3 4 12 1 22 -7 18 -5 17 17 -12 12 -16
12 -18 1 -11 -11 6 -13 1 -9 -23 2 -17 1 -29 -4 -26 -4 3 -8 2 -9 -3 0 -4 -2
-16 -4 -25 -2 -10 1 -20 5 -23 5 -3 7 3 5 13 -2 11 3 19 10 19 8 0 11 -5 7
-11 -11 -17 -9 -60 2 -69 7 -5 5 -7 -4 -4 -8 2 -15 9 -15 15 0 5 -3 13 -6 17
-4 3 -5 -8 -4 -25 3 -30 15 -56 15 -32 0 7 12 12 26 12 14 0 23 -4 19 -10 -3
-5 -1 -10 4 -10 6 0 11 5 11 11 0 5 5 7 10 4 6 -3 10 -1 10 6 0 8 5 7 17 -2
11 -10 14 -10 9 -1 -4 7 -1 12 9 12 11 0 16 8 15 23 -1 12 -2 69 -1 126 1 102
1 104 20 83 10 -12 21 -18 25 -15 4 4 4 0 1 -9 -4 -9 -1 -19 4 -23 6 -3 9 -10
7 -14 -3 -4 1 -8 9 -8 19 0 19 2 -1 21 -8 9 -10 16 -4 16 6 0 13 -7 16 -15 4
-8 10 -12 15 -9 14 8 11 -3 -5 -19 -13 -12 -11 -16 12 -26 24 -10 25 -10 9 3
-12 9 -14 16 -8 21 6 3 11 1 11 -5 0 -6 5 -8 10 -5 6 4 10 3 9 -2 -4 -22 2
-34 14 -27 7 5 6 0 -3 -11 -12 -15 -12 -17 -1 -10 11 6 13 4 7 -11 -4 -10 -4
-15 0 -11 4 4 14 1 23 -6 14 -11 15 -10 2 8 -15 20 -15 20 5 1 13 -13 15 -20
7 -23 -7 -3 -13 -10 -13 -16 1 -7 9 -2 20 11 l19 23 -3 -24 c-1 -12 -6 -29
-11 -37 -6 -12 -5 -13 6 -2 7 6 17 12 22 12 4 0 5 -6 1 -12 -5 -9 -2 -8 9 1
15 12 17 12 12 -1 -5 -12 0 -15 19 -13 19 2 23 -1 19 -13 -5 -14 -3 -15 8 -4
16 14 33 16 24 2 -3 -5 -1 -10 4 -10 6 0 11 5 11 11 0 5 5 7 10 4 6 -3 10 -2
10 3 0 5 11 8 24 7 13 -2 28 0 34 4 6 3 -53 71 -134 155 -79 82 -144 152 -144
155 0 11 61 71 73 71 6 0 8 2 5 5 -7 8 67 85 81 85 6 0 11 7 11 16 0 8 5 12
10 9 6 -3 13 2 17 11 3 10 24 35 46 56 44 42 47 39 -43 40 -63 1 -81 -2 -76
-11 6 -9 -22 -26 -36 -23 -5 1 -8 -3 -8 -9 0 -15 -114 -129 -129 -129 -6 0
-10 -4 -8 -8 1 -5 -15 -26 -35 -46 l-38 -38 -1 54 c0 29 0 88 0 131 1 42 -2
77 -6 78 -79 7 -103 3 -105 -16z m349 -551 c-3 -3 -12 -4 -19 -1 -8 3 -5 6 6
6 11 1 17 -2 13 -5z"/>
<path d="M1619 4334 c-6 -8 -16 -11 -22 -7 -6 3 -7 1 -3 -6 6 -9 11 -9 22 0
12 10 13 9 8 -5 -3 -9 -16 -16 -28 -16 -16 0 -18 -2 -6 -9 8 -6 17 -8 20 -6 3
2 6 -5 7 -15 1 -11 -2 -22 -8 -25 -5 -3 -6 1 -3 9 4 11 0 16 -12 16 -12 0 -15
-3 -8 -8 6 -4 10 -16 8 -26 -1 -11 2 -27 7 -35 9 -14 10 -14 5 1 -3 10 -2 19
2 22 4 3 9 -4 9 -15 1 -12 -7 -24 -20 -29 -20 -8 -9 -15 16 -11 11 2 8 -6 -9
-24 -14 -13 -14 -19 -4 -28 10 -9 11 -9 5 2 -6 10 -4 12 4 7 9 -6 8 -13 -6
-29 -17 -19 -17 -20 0 -14 9 4 17 2 17 -2 0 -5 -4 -11 -9 -13 -5 -1 -11 -10
-13 -18 -2 -8 -7 -19 -13 -23 -6 -5 0 -7 13 -4 12 3 22 1 22 -4 0 -5 -7 -9
-16 -9 -8 0 -12 -5 -9 -10 4 -6 11 -7 17 -4 7 4 8 2 4 -5 -4 -6 -12 -8 -18 -5
-6 4 -8 1 -6 -7 3 -8 11 -13 17 -11 20 4 12 -15 -11 -27 -23 -11 -23 -11 2 -7
21 4 23 3 9 -7 -9 -7 -15 -20 -13 -30 2 -13 -2 -17 -12 -13 -9 4 -12 2 -8 -5
3 -6 15 -8 26 -6 16 5 17 3 7 -9 -9 -11 -9 -21 -1 -39 9 -19 8 -27 -2 -37 -11
-11 -11 -16 1 -27 11 -10 11 -16 2 -27 -6 -7 -16 -11 -23 -7 -6 3 -7 2 -3 -2
11 -12 38 -15 31 -4 -5 9 17 7 46 -4 21 -7 50 -5 45 4 -3 3 4 9 15 12 20 5 20
12 18 308 l-3 303 -53 2 c-33 0 -56 -4 -63 -12z m1 -434 c0 -5 -5 -10 -11 -10
-5 0 -7 5 -4 10 3 6 8 10 11 10 2 0 4 -4 4 -10z"/>
<path d="M2080 4328 c-35 -11 -73 -26 -85 -34 -12 -8 -25 -11 -29 -7 -4 5 -6
1 -4 -7 2 -8 -4 -14 -12 -15 -8 0 -15 -5 -15 -12 0 -6 -12 -21 -27 -32 -18
-14 -25 -27 -21 -38 5 -12 3 -14 -8 -8 -11 7 -12 6 -2 -7 15 -18 5 -32 -12
-18 -9 8 -11 4 -7 -16 3 -20 7 -23 14 -12 8 10 9 10 5 -2 -2 -8 -11 -14 -20
-12 -8 1 -19 -3 -23 -9 -4 -7 -3 -9 3 -6 13 8 36 -17 25 -27 -4 -4 -7 -33 -8
-65 0 -31 -3 -62 -8 -69 -4 -8 -2 -10 7 -6 13 4 29 -15 31 -39 1 -4 8 -12 16
-17 8 -5 10 -10 4 -10 -6 0 -11 -7 -11 -15 0 -18 13 -20 21 -2 3 6 3 2 0 -10
-5 -22 8 -29 39 -24 5 1 6 -3 2 -9 -3 -6 -12 -7 -18 -3 -7 4 -7 0 1 -10 8 -9
10 -22 6 -28 -5 -8 -3 -9 5 -5 7 5 10 14 7 22 -3 8 -1 14 4 14 6 0 10 -5 10
-11 0 -5 4 -8 8 -5 4 2 14 0 22 -6 13 -8 12 -9 -2 -5 -9 3 -18 0 -21 -6 -3 -9
7 -12 34 -10 33 2 39 -1 39 -18 0 -21 15 -26 26 -7 4 7 3 8 -4 4 -8 -5 -10 -1
-5 10 4 11 8 13 11 6 2 -7 8 -10 12 -7 5 3 12 0 16 -6 4 -7 3 -9 -3 -6 -5 3
-10 0 -10 -8 0 -13 4 -12 19 2 16 14 18 15 18 0 0 -9 5 -19 12 -23 8 -5 9 -2
5 9 -3 9 -1 19 5 23 7 4 8 3 4 -4 -4 -8 0 -12 11 -12 11 0 24 -5 31 -12 9 -9
12 -9 12 0 0 7 -4 12 -10 12 -5 0 -10 4 -10 8 0 5 7 9 15 9 8 0 15 -7 15 -16
0 -14 2 -14 10 -1 5 8 10 11 10 6 0 -5 8 -2 17 5 15 12 16 12 8 -1 -8 -13 -7
-13 8 -1 12 9 17 10 17 2 0 -7 5 -9 10 -6 6 4 8 11 5 16 -4 5 5 9 19 9 31 0
106 31 106 44 0 5 -3 6 -7 3 -3 -4 -14 11 -24 32 l-17 39 -59 -14 c-75 -18
-128 -18 -187 0 -118 36 -185 147 -150 248 16 45 54 99 66 92 4 -3 8 0 8 6 0
7 7 9 17 6 10 -4 14 -4 10 0 -7 8 22 33 38 34 6 0 3 -5 -5 -10 -10 -7 -11 -10
-2 -10 7 0 15 6 18 13 2 7 19 12 37 12 17 -1 35 3 38 8 3 5 9 1 12 -8 5 -10 3
-14 -5 -9 -7 4 -8 3 -4 -5 5 -8 12 -9 19 -3 7 5 23 13 37 16 l25 7 -25 -15
-25 -15 30 2 c20 1 29 -2 27 -11 -1 -8 2 -11 7 -7 6 3 8 13 5 23 -3 9 2 6 11
-8 10 -15 14 -17 11 -7 -4 13 -1 18 12 16 29 -3 39 1 39 14 1 6 6 26 11 44 10
31 9 32 -26 44 -55 19 -60 20 -148 23 -59 2 -98 -2 -144 -16z m-160 -112 c0
-2 -8 -10 -17 -17 -16 -13 -17 -12 -4 4 13 16 21 21 21 13z"/>
<path d="M2481 4340 c-6 -3 -12 -18 -13 -32 -1 -15 -6 -24 -10 -22 -5 3 -6 9
-3 14 3 4 -3 14 -13 21 -14 11 -15 11 -5 -1 10 -11 10 -17 0 -29 -9 -12 -9
-13 1 -7 6 4 12 3 12 -3 0 -5 -6 -12 -12 -15 -7 -3 -4 -4 8 -1 14 4 21 0 21
-9 0 -9 -7 -12 -16 -8 -9 3 -13 2 -9 -3 4 -4 2 -15 -5 -23 -9 -13 -9 -14 1 -8
8 5 12 -1 12 -18 0 -14 -4 -26 -8 -26 -5 0 -9 -7 -9 -15 0 -8 4 -12 9 -9 4 3
8 -13 8 -36 0 -29 -4 -39 -12 -34 -7 4 -8 3 -4 -4 4 -6 12 -9 20 -6 7 3 13 -1
13 -9 0 -9 -8 -13 -21 -10 -16 4 -18 2 -7 -5 11 -8 11 -11 0 -16 -8 -3 -5 -4
7 -1 14 4 21 0 21 -9 0 -8 -6 -12 -14 -9 -7 3 -13 0 -13 -6 0 -6 7 -11 16 -11
8 0 12 -5 9 -10 -4 -6 -11 -8 -16 -5 -5 3 -6 -1 -3 -9 3 -9 9 -14 13 -11 10 6
7 -33 -4 -42 -4 -5 -5 -3 -1 4 3 6 3 14 -2 17 -4 2 -8 -6 -8 -19 0 -13 5 -21
11 -19 5 3 1 -2 -10 -12 -17 -14 -17 -16 -2 -11 11 4 17 1 17 -9 0 -8 -4 -13
-9 -10 -5 4 -7 -3 -4 -15 4 -12 0 -25 -8 -30 -10 -6 -10 -9 -1 -9 6 0 12 -7
12 -16 0 -8 5 -12 11 -9 6 4 5 -2 -2 -13 -7 -12 -18 -18 -24 -15 -5 4 -6 2 -2
-3 9 -9 14 -11 48 -13 11 0 17 -5 14 -11 -3 -5 -1 -10 4 -10 6 0 11 5 11 11 0
6 6 9 13 6 6 -2 11 -10 9 -16 -1 -7 2 -10 7 -6 6 3 7 13 4 22 -4 11 -3 14 6 9
28 -17 36 12 35 123 l-1 111 28 -2 c18 -1 26 -7 24 -18 -1 -8 3 -18 9 -22 8
-6 6 -11 -4 -18 -9 -6 -10 -10 -3 -10 7 0 17 8 22 18 9 15 10 14 11 -6 0 -20
4 -22 23 -16 21 6 21 6 -3 -15 -14 -13 -19 -20 -12 -16 6 3 12 1 12 -5 0 -8 6
-8 20 0 15 8 20 8 18 -1 -2 -6 5 -13 15 -14 22 -4 36 -15 19 -15 -7 0 -12 -7
-12 -16 0 -13 3 -14 14 -5 12 10 13 8 9 -10 -4 -15 -3 -20 5 -15 7 4 12 2 12
-5 0 -6 8 -9 20 -6 11 3 18 1 15 -3 -3 -5 3 -13 12 -19 10 -6 13 -11 6 -11 -6
0 -15 5 -18 10 -3 6 -14 9 -23 9 -15 -1 -15 -2 1 -6 9 -2 14 -9 11 -15 -4 -7
-2 -8 4 -4 7 4 12 3 12 -3 0 -6 7 -8 16 -4 9 3 20 0 25 -8 7 -12 9 -12 9 1 0
13 1 13 10 0 6 -10 10 -11 10 -2 0 17 30 15 54 -5 12 -10 15 -11 9 -3 -19 20
-16 27 10 26 41 -4 38 6 -20 64 -155 154 -244 250 -238 260 3 6 11 8 16 4 5
-3 8 0 7 8 -2 7 3 12 9 11 7 -2 12 3 10 10 -1 6 4 11 11 9 8 -1 11 1 8 6 -6
10 54 68 66 64 5 -1 7 1 6 6 -2 4 30 41 70 82 39 41 72 77 72 80 0 5 -120 5
-137 0 -5 -1 -12 -2 -16 -1 -5 1 -6 -3 -2 -8 7 -12 -29 -33 -40 -23 -5 4 -5 1
-1 -5 4 -7 2 -13 -4 -13 -6 0 -8 -5 -4 -12 5 -7 2 -9 -9 -5 -12 4 -14 2 -10
-10 5 -13 2 -15 -12 -9 -11 4 -16 4 -13 0 12 -11 -11 -44 -43 -63 -17 -10 -31
-23 -32 -27 -1 -5 -8 -8 -14 -8 -7 1 -10 -2 -7 -7 5 -9 -1 -16 -42 -52 l-21
-17 0 125 c0 69 -2 127 -4 129 -8 8 -88 13 -98 6z m-14 -192 c2 -18 0 -20 -7
-8 -12 18 -13 30 -2 30 4 0 9 -10 9 -22z m0 -343 c0 -8 -4 -12 -9 -9 -5 3 -6
10 -3 15 9 13 12 11 12 -6z"/>
<path d="M3225 4338 c-9 -6 -24 -7 -33 -3 -9 3 -13 3 -9 -1 7 -7 -71 -49 -85
-46 -4 1 -5 -5 -2 -13 5 -11 2 -13 -12 -8 -11 4 -15 3 -11 -4 9 -15 -21 -45
-35 -37 -7 4 -8 2 -4 -5 4 -6 12 -9 17 -6 5 3 6 -1 3 -9 -3 -9 -13 -12 -22 -9
-13 4 -12 1 3 -10 17 -13 18 -18 6 -29 -10 -9 -12 -9 -7 0 4 6 3 12 -2 12 -12
0 -10 -54 1 -58 5 -2 12 0 15 4 4 4 1 4 -5 0 -7 -4 -13 -2 -13 3 0 13 17 14
25 2 3 -5 -1 -16 -8 -23 -12 -11 -12 -16 -1 -26 18 -17 29 -15 15 2 -9 11 -9
16 0 22 7 4 9 3 6 -3 -8 -13 17 -36 28 -25 5 4 5 1 1 -5 -4 -7 -3 -13 1 -13 5
0 18 -7 29 -15 17 -14 16 -14 -13 0 -37 18 -53 19 -53 4 0 -5 4 -8 9 -5 12 8
42 -4 36 -13 -5 -9 32 -7 41 2 4 4 12 7 18 7 6 0 4 -5 -4 -11 -12 -9 -10 -10
8 -6 18 4 21 3 12 -8 -8 -9 -6 -14 5 -19 9 -3 14 -2 11 3 -3 5 1 11 9 15 8 3
17 1 20 -5 4 -5 10 -7 15 -4 5 3 11 1 15 -4 3 -6 -5 -8 -20 -5 -14 2 -25 0
-25 -4 0 -11 40 -9 59 2 8 5 12 5 9 0 -3 -5 1 -16 10 -24 14 -13 15 -12 9 3
-8 22 8 31 23 12 7 -8 16 -12 21 -9 5 3 9 -3 9 -12 0 -16 -1 -16 -20 1 -11 10
-20 13 -20 8 0 -12 24 -25 51 -28 9 -1 23 -8 31 -15 13 -12 13 -17 1 -28 -7
-7 -10 -19 -6 -25 4 -7 -1 -6 -10 2 -15 12 -17 12 -12 -2 13 -33 -125 -39
-223 -9 -66 21 -63 22 -95 -35 -17 -31 -17 -32 8 -61 13 -16 21 -33 17 -37 -4
-4 7 0 23 11 l30 18 -20 -24 c-11 -14 -13 -19 -5 -12 19 17 30 15 31 -5 0 -14
2 -13 9 5 11 26 23 30 13 5 -6 -16 -5 -17 12 -3 11 9 16 10 11 3 -4 -7 -4 -13
1 -14 4 0 16 -2 26 -4 9 -2 15 1 12 5 -3 5 -1 11 5 15 9 5 14 -6 12 -26 -1 -3
5 -6 12 -6 7 0 13 6 13 13 0 7 -5 10 -10 7 -6 -3 -7 -1 -3 5 9 14 38 3 30 -12
-3 -6 2 -2 10 8 9 11 16 15 16 10 0 -6 7 -11 15 -11 8 0 15 4 15 9 0 4 11 8
24 8 14 0 28 5 31 10 4 6 16 8 27 4 14 -4 18 -2 14 5 -4 6 -1 11 7 11 7 0 30
16 50 36 58 58 64 135 17 200 -20 29 -100 68 -193 95 -42 12 -91 34 -108 49
l-32 27 31 33 c18 18 32 28 32 22 0 -12 26 -10 37 3 4 4 2 5 -6 0 -10 -5 -12
-4 -7 3 5 9 13 9 26 2 12 -7 20 -6 22 0 2 7 14 7 36 -1 23 -8 36 -8 45 0 10 8
17 7 25 -1 7 -7 12 -9 12 -5 0 4 8 3 19 -2 26 -15 52 8 67 58 12 40 11 41 -15
47 -14 3 -42 10 -61 14 -45 11 -184 9 -205 -2z"/>
<path d="M4507 4329 c-12 -14 -12 -18 2 -27 14 -9 13 -10 -6 -7 -13 2 -26 -1
-29 -7 -4 -6 -3 -8 3 -5 6 4 15 1 21 -6 11 -14 12 -48 1 -41 -5 2 -6 11 -2 19
5 15 -12 22 -20 8 -5 -10 18 -55 25 -48 2 3 5 -2 5 -10 0 -10 -6 -14 -15 -10
-13 5 -13 3 -1 -11 15 -18 22 -77 8 -68 -4 2 -6 11 -2 19 3 9 -1 15 -8 15 -11
0 -11 3 1 10 9 6 10 10 3 10 -17 0 -25 -17 -12 -26 8 -4 7 -9 -2 -15 -10 -6
-11 -9 -1 -9 6 0 12 -7 12 -16 0 -8 4 -13 8 -10 5 3 9 -2 9 -10 0 -8 -6 -13
-13 -10 -8 3 -16 0 -20 -6 -4 -6 -3 -8 4 -4 6 3 14 1 19 -6 10 -17 12 -69 2
-62 -4 2 -6 11 -2 19 5 15 -12 22 -20 8 -5 -10 18 -55 25 -48 2 3 5 -2 5 -10
0 -9 -6 -14 -13 -11 -8 3 -16 0 -20 -6 -4 -6 -3 -8 4 -4 6 3 14 1 19 -6 10
-17 12 -69 2 -62 -4 2 -6 11 -2 19 5 15 -12 22 -20 8 -4 -9 18 -55 24 -49 2 3
4 -8 4 -24 1 -16 -3 -26 -7 -24 -5 3 -6 9 -3 14 3 5 0 12 -6 16 -8 4 -9 3 -5
-4 4 -7 1 -12 -6 -12 -10 0 -10 -2 0 -9 8 -4 12 -17 11 -27 -2 -11 0 -25 4
-31 5 -7 5 -13 1 -13 -3 0 -1 -7 6 -15 7 -8 17 -11 24 -7 6 4 20 7 31 7 11 0
25 4 32 8 6 4 19 0 27 -9 12 -11 16 -12 16 -2 1 8 6 6 15 -6 9 -12 15 -15 15
-7 0 11 3 11 15 1 9 -7 18 -10 22 -6 3 3 1 6 -5 6 -7 0 -12 4 -12 8 0 13 33
11 49 -2 11 -8 13 -8 7 2 -4 6 -3 12 1 12 5 0 15 -6 22 -12 11 -10 13 -10 7 0
-4 6 -4 12 1 13 4 0 16 2 26 4 9 2 15 -1 11 -6 -3 -5 -10 -6 -16 -3 -7 5 -8 2
-4 -5 6 -9 12 -9 24 2 20 18 91 39 104 31 5 -3 7 0 6 8 -2 7 3 12 10 10 6 -1
12 3 12 9 0 5 5 7 12 3 6 -4 8 -3 4 4 -3 6 -1 14 7 19 40 25 62 107 46 168 -9
31 -46 77 -76 94 -16 9 -16 11 -1 28 16 18 25 41 33 84 7 35 -29 103 -66 127
-44 26 -105 35 -256 36 -101 1 -125 -2 -136 -15z m170 -91 c11 16 12 16 13 1
0 -9 8 -20 18 -24 14 -5 15 -4 5 6 -17 17 -16 26 2 26 8 0 12 -4 9 -9 -3 -4 2
-8 11 -8 10 0 13 5 9 13 -6 9 -5 9 8 0 8 -7 19 -9 23 -5 5 4 5 1 1 -5 -4 -7
-3 -20 2 -29 8 -15 10 -15 15 0 5 11 3 15 -5 10 -7 -4 -8 -3 -4 4 12 19 47 -9
40 -32 -4 -13 -3 -16 6 -11 9 5 11 4 6 -4 -4 -6 -12 -9 -17 -6 -5 4 -9 1 -9
-4 0 -6 5 -11 12 -11 6 0 3 -7 -8 -15 -19 -15 -19 -15 1 -10 11 3 5 -2 -13
-10 -18 -9 -37 -13 -42 -10 -4 3 -10 1 -12 -4 -3 -8 -63 -15 -108 -12 -21 1
-23 141 -2 141 7 0 10 6 7 13 -3 6 0 4 7 -5 11 -15 13 -15 25 0z m-2 -248 c-3
-9 1 -8 10 4 11 15 15 16 16 5 0 -10 2 -10 6 -1 2 6 9 12 14 12 6 0 7 -4 4
-10 -3 -5 -1 -10 4 -10 6 0 11 6 12 13 0 8 2 8 6 -2 5 -11 7 -11 14 0 7 11 9
11 9 -1 0 -9 9 -16 19 -16 11 0 17 5 15 11 -3 5 3 0 14 -12 21 -24 40 -19 19
5 -11 13 -9 14 11 1 12 -8 18 -15 12 -17 -16 -6 -11 -25 11 -52 l21 -25 -16
27 c-16 27 -6 49 11 25 14 -20 9 -52 -8 -51 -12 1 -15 -5 -11 -19 3 -13 1 -18
-6 -14 -5 4 -12 2 -14 -3 -2 -6 -17 -13 -33 -16 -43 -8 -155 -11 -161 -4 -3 3
-11 5 -17 5 -13 0 -18 111 -6 142 8 23 52 26 44 3z m-165 -230 c0 -5 -2 -10
-4 -10 -3 0 -8 5 -11 10 -3 6 -1 10 4 10 6 0 11 -4 11 -10z m160 -24 c0 -3 -4
-8 -10 -11 -5 -3 -10 -1 -10 4 0 6 5 11 10 11 6 0 10 -2 10 -4z"/>
<path d="M4803 4195 c0 -8 4 -12 9 -9 5 3 6 10 3 15 -9 13 -12 11 -12 -6z"/>
<path d="M5266 4339 c8 -14 -9 -40 -35 -55 -14 -8 -18 -13 -8 -10 21 7 23 -10
2 -18 -8 -3 -15 -11 -15 -18 0 -9 3 -9 11 2 9 12 9 11 4 -5 -4 -11 -8 -25 -8
-32 0 -7 -4 -10 -8 -8 -3 3 -13 -3 -20 -12 -10 -12 -10 -14 -1 -9 6 4 12 2 12
-3 0 -6 -6 -11 -12 -11 -10 0 -10 -2 0 -9 11 -6 10 -10 -3 -15 -9 -3 -15 -12
-12 -19 3 -7 -1 -26 -8 -43 -6 -16 -12 -33 -13 -37 -1 -4 -9 -16 -20 -25 -10
-9 -11 -12 -3 -7 12 8 12 7 2 -12 -7 -15 -17 -20 -29 -16 -14 5 -14 3 2 -9 15
-12 16 -17 6 -23 -9 -6 -11 -4 -5 5 5 9 4 11 -4 6 -9 -6 -9 -11 1 -24 11 -13
11 -14 -1 -8 -10 7 -12 4 -7 -12 5 -14 -1 -26 -21 -42 -15 -12 -22 -19 -15
-15 26 13 3 -52 -25 -68 -10 -6 -10 -13 -3 -27 7 -13 7 -21 0 -25 -5 -3 -10
-1 -10 6 0 7 -3 9 -6 6 -9 -8 15 -37 30 -37 6 0 4 5 -4 10 -12 8 -11 10 8 10
12 0 21 -3 20 -7 -2 -5 2 -8 7 -8 6 0 9 3 7 8 -3 11 16 8 23 -3 11 -18 35 9
63 70 27 59 29 64 31 82 0 6 4 8 8 5 3 -4 13 -1 21 6 13 10 15 9 9 -8 -6 -17
-5 -18 5 -5 15 17 68 24 68 9 0 -6 6 -7 13 -2 13 8 101 13 93 5 -3 -2 2 -11
10 -19 8 -9 13 -21 11 -28 -3 -6 1 -12 8 -12 10 0 11 5 4 19 -14 26 -4 22 15
-6 11 -18 13 -27 4 -32 -7 -5 -8 -3 -3 7 8 12 6 12 -8 0 -22 -18 -22 -20 8
-17 13 2 22 0 20 -4 -3 -4 2 -13 10 -20 8 -7 12 -16 10 -21 -3 -4 3 -12 12
-18 10 -6 13 -11 7 -11 -16 0 -35 25 -26 36 4 4 -1 2 -10 -5 -10 -7 -18 -16
-18 -19 0 -3 3 -2 7 1 3 4 15 0 25 -9 14 -14 20 -14 33 -4 8 7 24 10 35 7 11
-3 20 -1 20 3 0 5 9 7 20 5 11 -2 20 1 20 7 0 9 -228 589 -234 596 -7 6 -134
7 -130 1z m71 -166 c-4 -3 -1 -13 6 -21 9 -13 9 -14 0 -8 -7 4 -13 2 -13 -3 0
-6 5 -11 10 -11 6 0 10 -6 10 -14 0 -8 3 -16 8 -19 4 -2 2 -3 -3 -1 -6 1 -11
-9 -11 -21 0 -13 4 -21 8 -19 5 3 6 11 2 17 -3 7 1 4 9 -5 8 -10 17 -15 20
-11 4 3 5 -4 2 -16 -2 -12 1 -21 8 -21 7 0 3 -6 -8 -12 -27 -17 -47 -19 -38
-5 5 9 3 9 -8 1 -22 -16 -85 -11 -81 6 10 52 66 170 80 170 3 0 2 -3 -1 -7z
m108 -293 c3 -5 1 -10 -4 -10 -6 0 -11 5 -11 10 0 6 2 10 4 10 3 0 8 -4 11
-10z m-315 -144 c0 -3 -4 -8 -10 -11 -5 -3 -10 -1 -10 4 0 6 5 11 10 11 6 0
10 -2 10 -4z"/>
<path d="M5356 4042 c-3 -5 1 -9 9 -9 8 0 12 4 9 9 -3 4 -7 8 -9 8 -2 0 -6 -4
-9 -8z"/>
<path d="M5880 4338 c0 -4 -7 -8 -15 -8 -27 0 -109 -43 -128 -67 -10 -13 -24
-20 -30 -16 -7 4 -8 0 -4 -11 4 -10 3 -15 -3 -11 -6 3 -10 0 -10 -8 0 -8 -9
-25 -21 -38 -11 -13 -17 -18 -13 -10 5 10 3 12 -5 7 -8 -5 -9 -12 -2 -20 6 -7
6 -17 1 -26 -5 -8 -6 -18 -3 -24 3 -5 1 -6 -6 -2 -6 4 -8 12 -5 18 4 7 2 8 -5
4 -6 -4 -9 -11 -7 -15 3 -4 7 -20 10 -35 4 -24 2 -26 -16 -21 -19 7 -19 6 2
-15 16 -16 19 -25 10 -35 -8 -10 -7 -16 7 -25 17 -11 17 -11 -1 -5 -20 6 -20
6 0 -16 l19 -22 -25 13 c-24 13 -25 12 -7 -7 22 -25 22 -40 0 -22 -15 13 -15
12 -2 -8 9 -15 17 -19 23 -13 13 13 26 13 26 -1 0 -5 -4 -7 -10 -4 -5 3 -10
-1 -10 -9 0 -8 8 -16 17 -18 15 -3 20 -16 25 -69 3 -20 26 -18 39 2 8 12 10
12 8 -1 -4 -26 12 -50 33 -50 10 0 16 5 13 10 -4 6 -11 7 -17 4 -7 -5 -8 -2
-3 5 5 9 13 7 29 -8 12 -12 26 -18 30 -14 5 5 5 -3 2 -17 -6 -20 -5 -22 4 -8
7 11 18 15 33 11 12 -3 32 -5 44 -6 12 -1 19 -5 17 -9 -3 -5 -10 -5 -16 -2 -7
4 -8 2 -4 -5 6 -9 14 -8 33 4 14 10 22 12 19 6 -4 -6 -4 -11 1 -12 4 0 18 -2
31 -3 13 -2 27 4 32 13 6 10 10 11 10 4 0 -7 5 -13 11 -13 5 0 7 6 3 13 -5 7
0 6 11 -3 10 -8 16 -10 12 -3 -9 15 13 23 35 11 14 -7 16 -5 11 9 -3 10 -3 15
2 11 9 -9 53 13 93 47 l31 26 -1 125 c-1 79 -6 124 -12 125 -6 1 -69 2 -141 3
-123 2 -162 -5 -149 -25 3 -5 0 -9 -7 -9 -9 0 -9 -3 0 -14 10 -11 7 -18 -11
-31 -15 -12 -17 -15 -5 -12 9 4 17 2 17 -3 0 -6 6 -9 13 -7 6 1 11 -6 9 -15
-2 -10 2 -18 8 -18 5 0 9 3 9 8 -3 18 2 32 11 32 5 0 6 -8 3 -17 -6 -16 -5
-16 10 -4 9 7 17 9 17 4 0 -5 7 -10 15 -10 11 0 12 4 4 13 -8 9 -5 11 10 7 12
-3 18 -10 14 -17 -3 -6 0 -6 8 2 16 15 29 16 29 1 0 -5 -6 -7 -12 -3 -9 5 -8
2 1 -9 8 -11 22 -15 35 -12 12 3 15 2 8 -1 -6 -3 -9 -11 -5 -17 4 -7 0 -8 -12
-3 -15 5 -16 4 -6 -8 7 -8 9 -21 5 -27 -4 -8 -3 -9 4 -5 8 4 10 2 6 -8 -16
-41 -165 -46 -239 -8 -124 63 -158 207 -73 305 13 15 27 27 32 27 4 0 14 7 23
16 9 8 22 13 30 10 8 -3 11 -1 8 4 -7 11 -1 12 70 14 30 1 45 -3 45 -11 0 -17
6 -16 38 4 22 15 25 15 15 2 -11 -13 -9 -18 12 -27 18 -8 26 -8 31 0 4 7 3 8
-4 4 -7 -4 -12 -2 -12 4 0 6 -5 8 -12 4 -7 -4 -8 -3 -4 4 5 9 13 9 29 0 12 -7
28 -11 36 -9 8 1 10 -2 6 -9 -6 -9 -2 -9 14 0 12 6 29 27 39 47 16 33 16 35
-3 49 -39 29 -120 47 -217 48 -54 1 -98 -2 -98 -6z m234 -377 c3 -5 -1 -11 -9
-14 -9 -4 -12 -1 -8 9 6 16 10 17 17 5z m-397 -153 c2 -17 0 -19 -7 -8 -5 8
-6 18 -4 22 8 12 10 10 11 -14z"/>
<path d="M6510 4340 c-50 -11 -85 -26 -114 -50 -10 -8 -21 -14 -25 -13 -3 0
-5 -3 -3 -9 1 -5 -7 -12 -18 -15 -11 -3 -18 -9 -15 -13 8 -13 -6 -40 -18 -33
-6 4 -7 1 -2 -8 10 -16 14 -50 6 -44 -4 2 -11 -7 -17 -19 -8 -17 -7 -23 2 -23
7 0 11 4 8 8 -2 4 0 10 5 14 6 3 8 -6 5 -21 -3 -15 -1 -23 5 -20 5 4 12 2 15
-3 4 -5 2 -12 -4 -16 -5 -3 -10 -11 -10 -16 0 -6 4 -8 9 -4 5 3 17 -2 26 -11
9 -10 24 -14 38 -11 21 6 21 6 3 -8 -23 -17 -14 -20 14 -5 13 7 21 7 25 0 4
-6 10 -8 15 -5 4 3 6 -5 3 -17 -5 -23 -5 -23 11 -3 17 20 17 20 11 -5 -4 -14
-3 -20 2 -14 4 6 22 14 38 18 l30 6 -25 -16 -25 -15 25 6 c14 3 33 8 43 10 10
2 15 0 12 -6 -4 -5 -10 -7 -15 -4 -5 3 -11 1 -14 -4 -3 -5 11 -7 32 -5 37 3
37 3 12 -12 l-25 -15 25 7 c40 10 42 10 47 -6 4 -13 3 -13 -6 0 -6 8 -11 10
-11 4 0 -6 3 -14 8 -18 4 -4 7 -13 7 -19 0 -5 7 -12 15 -14 10 -3 11 -2 4 4
-12 8 -11 40 2 51 4 4 4 0 2 -8 -3 -8 -1 -23 4 -32 9 -19 -20 -57 -44 -59 -7
-1 -24 -3 -38 -5 -68 -11 -146 0 -223 31 -13 6 -20 0 -28 -24 -6 -17 -15 -28
-20 -25 -6 3 -5 12 3 22 10 14 10 15 -2 5 -16 -14 -25 -77 -10 -68 6 4 9 3 8
-2 -4 -16 14 -53 23 -47 5 3 6 10 3 16 -4 7 -2 8 5 4 6 -4 9 -12 6 -17 -9 -13
9 -11 24 4 11 10 13 9 8 -5 -4 -10 -2 -18 4 -18 6 0 7 -6 3 -12 -5 -9 -2 -9 9
1 19 15 23 26 5 15 -7 -4 -8 -3 -4 5 6 8 12 9 20 2 7 -6 16 -8 19 -4 4 3 7 1
7 -6 0 -8 -7 -11 -15 -7 -22 8 -18 -2 5 -14 11 -6 20 -7 19 -3 -5 28 3 36 15
14 11 -19 14 -21 19 -7 4 9 11 16 17 16 6 0 8 -6 4 -12 -4 -7 -4 -10 1 -6 4 4
15 2 24 -5 14 -10 14 -10 3 4 -10 14 -10 18 3 23 9 3 14 2 11 -3 -3 -5 1 -12
10 -15 8 -3 12 -2 9 3 -3 5 -1 12 5 16 5 3 10 0 10 -7 0 -9 3 -9 10 2 9 13 10
13 10 0 0 -9 3 -11 8 -4 12 17 39 23 51 11 9 -9 11 -8 6 6 -5 13 -2 17 14 17
11 0 40 19 65 43 56 54 69 114 40 173 -27 54 -58 72 -195 119 -135 45 -157 63
-136 105 8 15 20 24 30 22 9 -2 17 1 17 6 0 6 7 13 16 16 8 3 13 2 10 -3 -3
-5 1 -11 9 -14 8 -4 12 -1 9 6 -7 20 104 13 119 -8 12 -15 14 -15 26 -1 9 11
19 12 35 6 20 -7 24 -4 39 38 10 26 17 50 17 54 0 24 -201 44 -280 28z"/>
<path d="M998 4310 c-14 -13 -15 -17 -3 -17 8 0 17 7 20 15 8 21 3 22 -17 2z"/>
<path d="M2176 4218 c3 -5 10 -6 15 -3 13 9 11 12 -6 12 -8 0 -12 -4 -9 -9z"/>
<path d="M3390 4214 c0 -8 5 -12 10 -9 6 4 8 11 5 16 -9 14 -15 11 -15 -7z"/>
<path d="M5186 4222 c-3 -5 1 -9 9 -9 8 0 12 4 9 9 -3 4 -7 8 -9 8 -2 0 -6 -4
-9 -8z"/>
<path d="M5915 4220 c-3 -5 -1 -10 4 -10 6 0 11 5 11 10 0 6 -2 10 -4 10 -3 0
-8 -4 -11 -10z"/>
<path d="M6610 4221 c0 -5 11 -8 25 -8 30 0 28 6 -4 12 -11 2 -21 0 -21 -4z"/>
<path d="M6296 4178 c3 -5 10 -6 15 -3 13 9 11 12 -6 12 -8 0 -12 -4 -9 -9z"/>
<path d="M3735 4160 c-3 -5 1 -10 10 -10 9 0 13 5 10 10 -3 6 -8 10 -10 10 -2
0 -7 -4 -10 -10z"/>
<path d="M5150 4081 c0 -7 -4 -9 -10 -6 -6 4 -7 -1 -3 -11 6 -15 7 -15 15 1 6
9 7 19 4 22 -3 4 -6 1 -6 -6z"/>
<path d="M1839 4068 c-1 -7 -1 -17 0 -22 1 -5 -6 -6 -16 -2 -17 6 -17 5 -1 -7
10 -8 14 -18 10 -22 -4 -5 -2 -5 5 -2 6 4 10 15 8 25 -1 9 2 23 8 30 6 8 6 12
-2 12 -6 0 -12 -6 -12 -12z"/>
<path d="M4478 4043 c7 -3 16 -2 19 1 4 3 -2 6 -13 5 -11 0 -14 -3 -6 -6z"/>
<path d="M5605 4019 c-4 -6 -4 -13 -1 -16 3 -4 6 -1 6 6 0 7 5 9 12 5 7 -4 8
-3 4 4 -9 15 -13 15 -21 1z"/>
<path d="M5906 4008 c3 -5 10 -6 15 -3 13 9 11 12 -6 12 -8 0 -12 -4 -9 -9z"/>
<path d="M6426 4012 c-3 -5 1 -9 9 -9 8 0 12 4 9 9 -3 4 -7 8 -9 8 -2 0 -6 -4
-9 -8z"/>
<path d="M2610 3944 c0 -8 5 -12 10 -9 6 4 8 11 5 16 -9 14 -15 11 -15 -7z"/>
<path d="M4478 3923 c7 -3 16 -2 19 1 4 3 -2 6 -13 5 -11 0 -14 -3 -6 -6z"/>
<path d="M5073 3908 c1 -15 6 -23 11 -18 4 4 4 16 -2 26 -9 16 -10 14 -9 -8z"/>
<path d="M3360 3910 c-12 -7 -10 -9 7 -7 12 0 19 5 17 9 -6 10 -6 10 -24 -2z"/>
<path d="M1852 3901 c4 -13 18 -16 19 -4 0 4 -5 9 -11 12 -7 2 -11 -2 -8 -8z"/>
<path d="M1868 3863 c7 -3 16 -2 19 1 4 3 -2 6 -13 5 -11 0 -14 -3 -6 -6z"/>
<path d="M5658 3853 c7 -3 16 -2 19 1 4 3 -2 6 -13 5 -11 0 -14 -3 -6 -6z"/>
<path d="M2710 3843 c0 -19 21 -27 33 -13 9 10 9 11 -2 5 -8 -4 -17 -2 -22 6
-6 9 -9 10 -9 2z"/>
<path d="M3031 3827 c-13 -21 -12 -21 5 -5 10 10 16 20 13 22 -3 3 -11 -5 -18
-17z"/>
<path d="M5033 3815 c0 -8 4 -12 9 -9 5 3 6 10 3 15 -9 13 -12 11 -12 -6z"/>
<path d="M1588 3813 c6 -2 9 -10 6 -15 -4 -7 -2 -8 5 -4 13 9 5 26 -12 25 -9
0 -8 -2 1 -6z"/>
<path d="M3014 3788 c3 -18 25 -55 26 -43 0 6 5 3 10 -5 6 -9 10 -10 10 -3 0
6 -9 18 -20 26 -11 8 -17 16 -14 19 3 3 1 9 -4 12 -6 3 -9 0 -8 -6z"/>
<path d="M5470 3770 c0 -5 5 -10 11 -10 5 0 7 5 4 10 -3 6 -8 10 -11 10 -2 0
-4 -4 -4 -10z"/>
<path d="M1570 3766 c0 -3 9 -10 20 -16 11 -6 20 -8 20 -6 0 3 -9 10 -20 16
-11 6 -20 8 -20 6z"/>
<path d="M6286 3758 c3 -5 10 -6 15 -3 13 9 11 12 -6 12 -8 0 -12 -4 -9 -9z"/>
<path d="M4076 3743 c-6 -14 -5 -15 5 -6 7 7 10 15 7 18 -3 3 -9 -2 -12 -12z"/>
<path d="M5794 3736 c1 -8 5 -18 8 -22 4 -3 5 1 4 10 -1 8 -5 18 -8 22 -4 3
-5 -1 -4 -10z"/>
<path d="M4590 3723 c0 -6 8 -17 18 -24 16 -13 16 -13 2 6 -8 11 -16 22 -17
24 -2 2 -3 0 -3 -6z"/>
<path d="M1635 3711 c-3 -5 -2 -12 3 -15 5 -3 9 1 9 9 0 17 -3 19 -12 6z"/>
<path d="M4227 3689 c4 -13 8 -18 11 -10 2 7 -1 18 -6 23 -8 8 -9 4 -5 -13z"/>
<path d="M3750 3686 c0 -2 7 -7 16 -10 8 -3 12 -2 9 4 -6 10 -25 14 -25 6z"/>
<path d="M1855 3640 c-22 -3 -51 -12 -65 -20 -14 -8 -28 -13 -32 -12 -4 1 -5
-5 -2 -13 5 -11 1 -14 -12 -9 -17 6 -17 5 1 -10 11 -10 14 -15 8 -11 -7 3 -13
3 -14 -2 0 -4 -2 -16 -4 -26 -2 -9 1 -15 6 -11 5 3 9 0 9 -7 0 -7 3 -9 6 -6 4
4 1 15 -7 24 -13 16 -12 17 4 4 20 -16 22 -37 5 -45 -7 -2 -3 -4 9 -2 12 1 26
6 30 11 5 4 2 5 -6 0 -10 -5 -12 -4 -7 4 12 18 27 1 21 -22 -4 -15 -3 -18 3
-9 10 15 56 26 47 11 -4 -5 -10 -7 -14 -5 -4 3 -8 -1 -8 -8 0 -8 8 -11 19 -8
10 2 18 9 18 14 0 6 7 5 16 -3 14 -11 13 -15 -7 -30 -13 -10 -26 -16 -30 -14
-3 2 -21 7 -39 10 -25 4 -37 1 -51 -14 -10 -10 -15 -21 -12 -25 3 -3 0 -12 -7
-21 -16 -20 -3 -20 17 0 14 14 17 14 34 -1 10 -9 16 -22 12 -28 -4 -6 1 -5 10
3 18 15 23 26 7 16 -5 -3 -10 -1 -10 4 0 12 27 10 48 -2 7 -5 12 -4 12 2 0 6
8 11 18 11 10 0 23 5 30 12 8 8 15 8 29 -3 17 -13 17 -13 3 5 -13 16 -12 20 3
31 9 6 13 15 9 19 -7 7 -8 12 -11 39 0 7 -30 24 -66 37 -51 19 -65 29 -65 45
0 11 4 15 8 10 8 -12 57 -14 68 -2 5 4 1 5 -9 1 -9 -3 -17 -2 -17 4 0 5 15 8
34 5 25 -3 35 0 40 13 4 9 5 18 4 18 -26 15 -61 21 -93 16z"/>
<path d="M2871 3630 c-8 -8 -18 -15 -22 -15 -4 0 -11 -3 -15 -7 -3 -4 3 -6 15
-3 11 2 21 0 21 -6 0 -5 -10 -9 -22 -10 -13 0 -17 -3 -10 -6 6 -2 12 -11 12
-19 0 -9 5 -12 12 -8 7 4 8 3 4 -5 -4 -6 -11 -9 -16 -6 -5 3 -11 1 -15 -5 -3
-5 1 -10 9 -10 9 0 16 -5 16 -11 0 -5 -4 -7 -10 -4 -6 3 -7 -1 -4 -9 3 -9 11
-13 18 -9 6 4 5 -1 -3 -10 -7 -10 -9 -17 -3 -17 6 0 9 -8 7 -17 -1 -10 -10
-17 -19 -17 -13 2 -14 -1 -5 -12 6 -8 16 -11 21 -8 6 4 5 -4 -2 -16 -11 -20
-10 -22 4 -17 9 4 20 -1 26 -11 11 -16 11 -16 6 1 -7 22 22 23 39 0 9 -13 14
-13 20 -3 5 9 4 11 -3 6 -7 -4 -12 -2 -12 3 0 15 27 14 33 -1 4 -10 6 -10 6 0
1 6 6 12 12 12 5 0 8 -4 4 -9 -3 -5 -1 -13 5 -16 6 -4 10 -3 9 2 -4 22 2 32
16 27 14 -6 20 6 16 29 -1 4 4 18 11 30 7 12 11 26 10 30 -1 5 1 6 6 3 11 -7
8 -61 -4 -59 -5 1 -10 -7 -10 -18 0 -10 4 -19 9 -19 4 0 5 -5 1 -12 -4 -7 -3
-8 4 -4 6 4 8 14 5 23 -6 15 -5 16 9 3 9 -8 14 -19 11 -25 -2 -5 2 -2 10 7 8
10 17 15 20 11 4 -3 7 8 7 25 0 37 9 62 22 62 6 0 4 -8 -3 -17 -12 -16 -12
-17 2 -6 9 7 19 10 23 6 4 -4 4 1 0 12 -7 18 -6 19 11 5 11 -9 16 -10 11 -2
-4 6 -3 12 3 12 5 0 12 -6 14 -12 3 -8 6 -6 6 4 1 10 7 15 14 12 18 -6 46 46
43 80 -6 49 -28 61 -120 63 -80 2 -84 1 -78 -19 3 -13 -1 -24 -11 -30 -9 -4
-14 -15 -11 -23 4 -8 9 -13 13 -11 3 2 6 -8 6 -24 1 -17 -4 -26 -11 -23 -7 2
-11 -5 -10 -19 0 -13 -4 -22 -11 -21 -7 2 -10 -3 -7 -11 8 -20 -12 -29 -35
-16 -11 5 -22 6 -25 1 -3 -4 -16 -8 -28 -7 -19 1 -23 7 -23 31 0 29 1 30 52
30 59 1 67 6 59 32 -5 14 -16 18 -58 18 -48 0 -52 2 -53 25 -2 24 1 25 56 26
36 0 56 -3 52 -9 -3 -6 -1 -7 5 -3 7 4 10 17 8 29 -3 20 -10 22 -81 27 -62 4
-82 2 -94 -10z m327 -41 c1 -1 8 -2 15 -3 6 -1 11 -8 9 -16 -5 -23 -33 -40
-64 -40 -23 0 -28 4 -28 23 0 30 18 47 44 42 12 -2 22 -4 24 -6z"/>
<path d="M3144 3578 c-4 -7 -3 -8 5 -4 6 4 23 1 36 -8 20 -13 24 -13 29 -1 3
8 2 14 -2 14 -4 -1 -9 -1 -12 1 -23 8 -50 8 -56 -2z"/>
<path d="M4635 3638 c-16 -4 -36 -6 -43 -3 -7 3 -10 0 -7 -5 6 -9 -8 -14 -28
-11 -5 1 -5 -4 -1 -10 5 -8 2 -10 -9 -6 -9 3 -21 -1 -29 -11 -12 -15 -11 -16
5 -3 30 24 18 -3 -14 -32 -17 -15 -36 -24 -41 -21 -6 4 -31 7 -57 8 -44 1 -46
2 -48 31 -1 17 1 22 3 13 3 -10 9 -18 14 -18 5 0 7 6 4 13 -3 9 9 12 45 11 40
0 51 3 54 17 3 10 2 20 -1 23 -3 3 -43 6 -89 6 -70 0 -83 -3 -83 -16 0 -11 -6
-14 -17 -10 -15 5 -14 3 2 -10 20 -16 20 -16 -1 -12 -19 5 -20 3 -10 -17 6
-13 15 -21 20 -18 5 4 6 0 1 -8 -13 -21 -14 -52 -1 -68 8 -11 8 -13 -1 -7 -7
4 -13 3 -13 -1 0 -5 6 -15 13 -22 10 -11 10 -13 0 -7 -16 9 -17 -6 -1 -22 7
-7 8 -12 4 -12 -5 0 -2 -8 5 -17 13 -16 12 -17 -3 -4 -13 9 -18 10 -18 2 0 -7
-5 -9 -11 -6 -5 4 -9 11 -7 17 2 6 -9 24 -24 40 -33 36 -34 45 -9 72 36 39 27
100 -16 117 -13 5 -55 9 -92 9 l-69 0 3 -30 c1 -17 -1 -32 -5 -35 -4 -2 -7 5
-6 17 0 12 -6 23 -14 25 -13 4 -13 3 0 -6 13 -10 13 -11 0 -11 -12 0 -12 -2
-2 -9 8 -4 13 -11 13 -15 -3 -20 0 -26 12 -20 9 6 9 4 -1 -8 -9 -11 -10 -18
-2 -23 6 -3 7 -12 3 -18 -13 -21 -13 -75 0 -100 10 -20 17 -23 35 -16 18 7 22
14 17 29 -3 11 -3 20 2 21 4 0 18 2 31 5 12 2 22 -1 22 -6 0 -6 -7 -10 -15
-10 -8 0 -15 -4 -15 -10 0 -6 9 -6 26 0 32 12 44 13 25 1 -8 -5 -16 -19 -18
-31 -2 -13 1 -19 8 -15 6 4 8 13 5 20 -5 13 18 15 30 2 4 -4 18 -7 30 -7 13 0
25 -4 28 -8 3 -5 15 -8 28 -7 13 1 27 -3 31 -9 6 -7 7 -4 3 7 -4 12 0 17 14
17 18 0 25 -11 21 -34 -1 -5 5 -4 13 4 18 14 22 25 6 15 -5 -3 -10 -1 -10 4 0
6 7 11 15 11 8 0 15 -6 15 -12 0 -9 3 -9 9 1 5 8 16 11 25 8 9 -4 16 -2 16 4
0 6 4 8 9 5 14 -9 21 21 8 32 -7 5 -36 8 -65 7 l-53 -1 3 31 3 30 71 0 c68 0
72 1 69 22 -1 13 5 29 13 35 13 11 14 11 7 -2 -5 -8 -10 -26 -10 -40 0 -14 -5
-24 -11 -23 -6 1 -11 -5 -11 -13 0 -9 7 -13 21 -9 12 3 15 2 8 -1 -14 -7 55
-73 73 -70 5 2 7 1 3 -1 -15 -8 -8 -19 12 -20 11 -1 19 1 16 5 -7 12 58 9 66
-2 5 -7 8 -3 8 8 0 11 3 16 7 13 3 -4 11 -3 17 2 19 15 73 16 91 1 18 -15 93
-21 101 -9 2 4 13 6 24 4 12 -2 18 0 16 4 -3 4 6 14 19 21 25 13 49 62 37 76
-4 4 -1 3 7 -1 11 -6 13 -4 8 9 -4 10 -3 15 3 11 6 -3 10 -1 10 4 0 6 -6 11
-13 11 -7 0 -13 10 -14 22 -1 12 -15 35 -32 51 -22 23 -41 31 -80 35 -27 2
-58 1 -68 -3 -10 -5 -21 -9 -25 -9 -15 -2 -58 -62 -53 -75 5 -12 3 -12 -12 0
-9 8 -14 9 -10 2 4 -6 2 -13 -5 -15 -6 -2 -12 -12 -14 -21 -1 -9 2 -15 7 -11
5 3 7 10 4 15 -4 5 1 9 9 9 9 0 16 -2 16 -4 0 -11 -28 -55 -32 -51 -2 3 -5 -1
-5 -9 0 -15 21 -16 34 -1 4 4 2 5 -4 1 -9 -5 -11 -2 -7 9 4 9 7 15 8 13 1 -2
8 -12 16 -22 10 -13 10 -17 3 -12 -8 4 -13 1 -13 -9 0 -9 5 -13 10 -10 6 3 10
1 10 -4 0 -14 -17 -14 -25 0 -4 6 -23 8 -45 5 -76 -10 -129 21 -130 76 0 32
38 81 57 74 7 -3 15 -2 17 3 3 4 18 7 33 5 15 -1 36 -2 46 -3 11 -1 15 -6 11
-13 -4 -6 -3 -8 3 -5 6 4 8 17 6 31 -6 29 -62 47 -108 34z m-463 -60 c-3 -14
0 -17 12 -12 9 3 13 11 9 17 -4 6 -1 7 7 2 10 -6 9 -11 -6 -22 -10 -8 -18 -19
-16 -24 1 -6 -12 -9 -30 -7 -26 2 -33 8 -34 26 -1 17 3 22 14 17 11 -4 12 -2
4 7 -8 10 -4 13 17 13 22 1 27 -3 23 -17z m751 13 c5 0 5 -7 0 -13 -11 -19
-13 -39 -2 -32 5 3 10 0 10 -5 1 -6 2 -17 3 -23 1 -7 -3 -19 -8 -27 -8 -11 -8
-13 1 -8 6 4 14 1 16 -5 3 -7 4 3 2 22 -2 19 -6 42 -10 51 -3 10 -2 20 4 24 7
3 8 0 5 -9 -3 -9 -1 -16 4 -16 6 0 9 -9 7 -20 -2 -11 2 -20 8 -20 8 0 8 -3 2
-8 -5 -4 -10 -14 -10 -22 0 -9 -7 -14 -17 -12 -13 2 -16 -2 -11 -14 5 -14 2
-16 -15 -12 -12 4 -20 2 -16 -3 11 -19 -36 -8 -62 14 -27 23 -45 97 -24 97 5
0 10 5 10 11 0 27 40 39 103 30z m-423 -71 c0 -5 -7 -10 -16 -10 -8 0 -12 5
-9 10 3 6 10 10 16 10 5 0 9 -4 9 -10z m-353 -52 c2 -18 0 -20 -7 -8 -7 10
-10 11 -10 3 0 -7 -5 -13 -12 -13 -6 0 -3 9 7 20 22 24 20 25 22 -2z"/>
<path d="M4850 3578 c0 -5 10 -6 21 -3 14 5 19 3 15 -3 -3 -6 -1 -14 5 -18 8
-4 9 -3 5 4 -4 7 -2 12 3 12 6 0 11 4 11 8 0 5 -13 8 -30 8 -16 0 -30 -4 -30
-8z"/>
<path d="M1984 3631 c8 -12 -4 -42 -14 -36 -4 3 -14 -3 -21 -13 -13 -15 -12
-16 3 -4 15 12 16 7 14 -53 -2 -49 1 -68 12 -74 19 -10 5 -34 -15 -27 -8 3
-11 1 -8 -4 3 -6 13 -10 21 -10 8 0 14 -5 14 -11 0 -5 -4 -7 -10 -4 -5 3 -10
1 -10 -5 0 -6 10 -8 28 -4 37 9 41 12 41 32 1 48 21 102 21 57 0 -18 1 -18 16
1 15 19 16 19 10 -1 l-6 -20 15 20 c9 11 17 18 18 16 6 -12 45 13 60 39 16 26
16 33 3 63 -10 26 -22 36 -46 41 -49 9 -152 7 -146 -3z m116 -41 c3 -2 8 -2
12 -1 4 0 12 -9 18 -22 11 -21 10 -21 -4 -3 -9 11 -17 16 -17 10 -1 -5 -2 -16
-3 -24 0 -9 -14 -16 -35 -18 -30 -3 -33 -1 -28 17 3 12 0 21 -5 21 -6 0 -6 6
2 15 10 12 35 14 60 5z m-113 -25 c0 -8 -4 -12 -9 -9 -5 3 -6 10 -3 15 9 13
12 11 12 -6z m3 -64 c0 -6 -4 -12 -8 -15 -5 -3 -9 1 -9 9 0 8 4 15 9 15 4 0 8
-4 8 -9z"/>
<path d="M2055 3581 c3 -6 14 -9 25 -8 23 2 17 10 -11 14 -11 2 -18 -1 -14 -6z"/>
<path d="M2078 3553 c7 -3 16 -2 19 1 4 3 -2 6 -13 5 -11 0 -14 -3 -6 -6z"/>
<path d="M2277 3625 c-8 -8 -17 -12 -20 -9 -3 3 -3 -3 0 -14 2 -11 -1 -23 -8
-27 -7 -5 -10 -4 -5 3 3 6 2 13 -3 16 -11 7 -9 -13 3 -33 7 -11 5 -13 -9 -7
-15 5 -16 4 -5 -9 10 -12 9 -16 -5 -21 -13 -5 -14 -9 -3 -15 10 -7 11 -9 0 -9
-7 0 -10 -4 -7 -10 4 -6 -1 -7 -12 -3 -16 6 -16 5 -4 -10 8 -10 11 -21 7 -24
-4 -4 -11 -1 -16 7 -13 21 -12 3 1 -22 8 -15 8 -19 0 -14 -6 4 -11 2 -11 -4 0
-6 -5 -8 -12 -4 -10 6 -10 5 -1 -8 7 -8 11 -17 8 -20 -3 -2 4 -4 15 -3 22 1
67 34 70 50 0 6 12 9 26 8 15 -1 22 2 18 9 -5 7 -2 8 7 2 8 -5 21 -9 29 -9 8
0 14 -6 13 -12 -2 -7 1 -13 6 -13 5 0 12 -8 15 -17 6 -15 5 -15 -13 1 -13 11
-21 14 -26 6 -4 -6 -1 -9 7 -8 7 2 12 -2 11 -9 -2 -11 30 -10 63 2 13 4 7 55
-6 55 -4 0 -11 12 -14 28 -4 15 -19 57 -34 94 -22 55 -31 68 -49 68 -12 0 -28
-7 -36 -15z m26 -111 c-4 -10 -9 -12 -15 -6 -12 12 -1 35 12 27 5 -3 6 -13 3
-21z m27 1 c0 -8 -4 -15 -10 -15 -5 0 -7 7 -4 15 4 8 8 15 10 15 2 0 4 -7 4
-15z"/>
<path d="M2625 3611 c2 -21 -1 -28 -11 -24 -8 3 -14 10 -14 16 0 6 -2 8 -5 5
-7 -7 21 -59 29 -53 3 3 2 0 -3 -6 -5 -6 -7 -18 -4 -25 3 -8 0 -14 -7 -14 -6
0 -8 5 -5 10 3 6 1 10 -5 10 -7 0 -10 -6 -7 -14 3 -8 3 -17 -1 -19 -4 -2 -1
-2 6 -1 6 2 12 0 12 -4 0 -5 -6 -14 -12 -21 -10 -11 -10 -13 0 -7 8 5 12 0 12
-13 0 -10 6 -21 13 -24 9 -3 9 -8 -2 -18 -12 -12 -13 -12 -6 0 6 10 4 12 -5 6
-8 -5 -11 -4 -7 1 3 6 1 16 -4 24 -7 11 -8 8 -5 -10 3 -14 5 -27 6 -30 2 -3 2
-8 1 -12 0 -4 7 -4 16 -1 12 5 14 3 8 -8 -6 -11 -5 -12 6 -1 7 6 21 12 30 12
12 0 17 6 14 20 -2 11 0 20 6 20 5 0 9 7 9 16 0 8 -4 12 -10 9 -6 -4 -7 1 -3
11 4 11 8 13 11 6 2 -7 8 -10 13 -7 5 4 17 1 26 -5 15 -9 14 -10 -7 -4 -20 5
-22 4 -13 -6 6 -7 9 -18 7 -25 -3 -6 1 -17 8 -23 11 -8 14 -7 14 8 0 10 -5 16
-10 13 -5 -4 -6 -1 -1 6 5 9 14 6 34 -13 27 -26 74 -35 86 -16 3 6 2 10 -3 10
-5 0 -22 16 -37 36 l-27 36 21 29 c11 15 21 33 21 39 0 6 4 9 9 6 5 -4 1 11
-10 33 -21 44 -37 51 -130 51 l-67 0 3 -29z m113 -19 c8 -5 10 -16 6 -27 -5
-13 -4 -16 4 -11 7 4 10 2 7 -6 -4 -9 -20 -14 -43 -13 -32 0 -37 3 -37 25 0
16 7 27 20 32 28 9 29 9 43 0z"/>
<path d="M2710 3580 c0 -5 7 -10 16 -10 8 0 12 5 9 10 -3 6 -10 10 -16 10 -5
0 -9 -4 -9 -10z"/>
<path d="M3373 3624 c-3 -8 -11 -13 -17 -11 -8 3 -11 -5 -10 -23 2 -23 -1 -27
-15 -22 -13 5 -14 3 -4 -9 10 -12 9 -20 -2 -36 -8 -11 -11 -24 -7 -28 4 -5 0
-6 -8 -3 -12 5 -16 -1 -14 -23 1 -18 -2 -27 -9 -22 -7 4 -8 0 -4 -13 7 -18 6
-18 -7 -1 -12 16 -14 15 -12 -12 1 -17 7 -35 14 -41 9 -7 9 -7 2 2 -18 21 -11
29 13 13 21 -13 24 -13 36 4 8 10 13 22 12 26 -5 15 23 23 43 13 19 -10 20
-10 7 6 -12 14 -12 16 3 10 9 -3 17 -10 17 -15 1 -5 2 -13 3 -19 0 -5 4 -10 9
-10 4 0 10 0 14 0 4 0 2 5 -5 12 -7 7 -12 17 -12 22 0 6 7 0 16 -12 13 -18 13
-26 3 -38 -6 -8 -9 -17 -5 -21 3 -3 6 -1 6 6 0 7 5 9 12 5 7 -4 8 -3 4 4 -4 7
-2 12 3 12 6 0 11 -3 11 -8 0 -10 113 -4 120 7 3 5 5 55 4 110 -1 56 3 101 8
101 5 0 3 7 -6 15 -15 16 -61 21 -52 6 6 -9 -18 -34 -25 -26 -3 2 -5 -7 -5
-21 0 -17 4 -23 14 -19 7 2 10 1 7 -4 -3 -5 0 -13 6 -17 8 -4 7 -9 -2 -15 -12
-8 -11 -11 1 -19 8 -5 10 -10 5 -10 -6 0 -17 6 -24 13 -10 10 -11 8 -5 -7 6
-15 4 -17 -6 -11 -8 5 -11 4 -6 -3 4 -6 12 -9 19 -6 8 3 12 -11 13 -46 0 -28
-3 -45 -7 -38 -4 6 -5 16 -3 20 3 4 1 8 -4 8 -6 0 -29 47 -52 105 -37 93 -45
105 -66 105 -14 0 -27 -7 -31 -16z m167 -34 c0 -5 -5 -10 -11 -10 -5 0 -7 5
-4 10 3 6 8 10 11 10 2 0 4 -4 4 -10z m-119 -71 c6 -12 2 -15 -21 -15 -21 0
-27 3 -20 11 5 7 7 14 4 18 -3 3 2 4 11 3 10 -1 21 -9 26 -17z"/>
<path d="M3395 3520 c-3 -5 -1 -10 4 -10 6 0 11 5 11 10 0 6 -2 10 -4 10 -3 0
-8 -4 -11 -10z"/>
<path d="M3645 3630 c3 -5 2 -10 -4 -10 -6 0 -7 -7 -4 -17 5 -12 3 -14 -8 -8
-11 7 -11 5 1 -10 14 -17 13 -17 -10 -11 -14 4 -20 4 -15 -1 12 -9 13 -42 2
-60 -4 -6 -3 -14 2 -17 13 -8 18 4 16 36 -1 19 2 25 12 21 8 -3 11 -9 6 -12
-10 -7 -11 -106 -1 -116 3 -4 4 -19 2 -33 -2 -15 -1 -22 3 -16 5 7 17 13 27
15 15 3 20 13 20 36 1 36 19 62 31 43 4 -6 1 -17 -5 -25 -8 -10 -9 -15 -2 -15
6 0 16 8 21 18 14 23 14 6 1 -19 -8 -13 -7 -19 0 -19 6 0 8 -5 4 -12 -4 -7 -3
-8 4 -4 6 4 22 1 34 -5 22 -12 22 -11 8 7 -11 15 -11 16 0 7 16 -14 60 -18 60
-5 0 5 -13 26 -29 47 l-29 39 25 30 c19 23 23 37 19 60 -10 51 -38 66 -123 66
-47 0 -72 -4 -68 -10z m107 -49 c-5 -14 -4 -14 11 -2 15 12 17 12 11 -3 -8
-20 -23 -21 -30 -1 -5 12 -10 13 -20 4 -7 -6 -19 -7 -26 -3 -9 6 -5 10 12 14
40 10 49 8 42 -9z m1 -26 c15 -6 16 -10 5 -16 -24 -16 -64 -10 -65 9 -2 19 26
23 60 7z m14 -130 c0 -8 -4 -15 -9 -15 -10 0 -11 14 -1 23 9 10 10 9 10 -8z"/>
<path d="M5055 3630 c-4 -7 -16 -10 -26 -7 -11 3 -17 1 -13 -4 3 -5 11 -9 17
-9 7 0 13 -9 14 -20 1 -11 -3 -20 -8 -20 -6 0 -7 5 -4 10 3 6 1 10 -4 10 -13
0 -9 -33 6 -52 14 -18 13 -46 -3 -52 -8 -3 -11 -16 -8 -35 4 -21 1 -31 -7 -31
-7 0 -9 -3 -6 -6 4 -4 14 -1 22 6 13 11 16 11 13 -1 -2 -8 -9 -19 -17 -25 -11
-9 -12 -12 -1 -19 9 -5 11 -4 6 3 -5 8 1 12 16 12 18 0 20 -2 8 -10 -8 -5 -10
-10 -4 -10 6 0 14 3 18 7 14 14 41 12 55 -5 13 -16 13 -16 8 1 -5 14 0 17 37
17 30 0 46 5 50 15 11 30 99 -12 89 -43 -4 -14 -3 -15 5 -2 6 8 8 18 6 22 -3
4 0 8 5 8 6 0 11 -4 11 -10 0 -5 5 -10 11 -10 5 0 7 6 3 13 -5 7 0 6 11 -3 11
-9 16 -10 11 -2 -5 8 0 12 13 12 23 0 97 62 99 82 1 7 3 24 5 38 5 45 -24 95
-71 119 -24 13 -143 11 -136 -1 3 -5 -1 -8 -9 -8 -8 0 -18 -7 -21 -16 -3 -8
-10 -12 -16 -9 -5 3 -7 0 -4 -8 3 -8 0 -18 -5 -22 -6 -3 -8 -12 -5 -18 5 -8 3
-8 -7 1 -19 18 -33 15 -15 -4 9 -8 14 -19 11 -24 -3 -5 -1 -11 5 -15 6 -4 8
-11 4 -16 -9 -15 -23 0 -19 21 2 12 0 18 -6 15 -5 -4 -7 -11 -4 -16 4 -5 0 -9
-7 -9 -8 0 -6 -5 5 -11 9 -6 15 -15 12 -20 -4 -5 -11 -6 -17 -3 -7 4 -8 2 -4
-5 4 -6 12 -9 17 -6 5 4 9 1 9 -4 0 -6 5 -11 11 -11 8 0 8 5 -1 15 -7 8 -8 15
-4 15 5 0 14 -8 21 -18 10 -17 6 -18 -61 -18 l-71 1 -5 100 c-4 82 -8 100 -22
103 -9 2 -19 -2 -23 -8z m342 -42 c7 -1 12 -4 11 -7 0 -3 0 -13 1 -21 1 -13 2
-13 11 0 6 9 10 10 10 3 0 -22 -19 -24 -30 -3 -7 13 -17 19 -26 16 -9 -3 -12
-1 -9 4 3 6 2 10 -4 10 -5 0 -9 -9 -8 -20 1 -13 5 -16 11 -10 15 15 30 12 17
-4 -9 -11 -8 -14 5 -12 9 0 18 -7 20 -16 8 -38 10 -43 17 -55 5 -7 0 -10 -15
-6 -16 3 -19 2 -10 -5 10 -7 9 -12 -4 -23 -16 -12 -17 -12 -9 1 7 13 6 13 -7
2 -36 -29 -91 9 -102 70 -7 40 40 88 80 82 16 -3 34 -5 41 -6z m39 -67 c0 -16
-3 -17 -14 -9 -12 10 -7 19 13 28 1 0 1 -9 1 -19z m-390 -67 c1 -9 0 -13 -4
-10 -3 4 -7 14 -8 22 -1 9 0 13 4 10 3 -4 7 -14 8 -22z"/>
<path d="M5525 3632 c-14 -9 -14 -194 0 -205 6 -5 4 -7 -5 -4 -8 2 -15 13 -15
25 0 11 -3 23 -7 27 -3 4 -5 -1 -4 -12 2 -10 -2 -21 -8 -25 -8 -5 -7 -8 2 -8
7 0 11 -4 8 -8 -3 -5 0 -9 7 -10 7 0 21 -3 32 -6 11 -2 23 -5 28 -5 14 -2 7
-18 -8 -18 -8 0 -12 3 -10 7 2 3 -6 7 -18 7 -21 2 -22 2 -2 -9 11 -7 22 -12
25 -11 3 0 11 -7 18 -16 11 -14 11 -14 5 3 -5 14 -3 17 7 11 8 -5 11 -4 7 2
-7 11 34 10 52 -2 6 -3 11 -1 11 4 0 6 8 11 18 11 10 0 23 5 30 12 7 7 12 8
12 3 0 -6 9 5 20 23 12 20 25 30 32 26 7 -4 8 -3 4 5 -4 6 -12 9 -17 5 -13 -8
-7 29 6 38 6 5 5 8 -2 8 -9 0 -13 17 -12 53 2 76 1 77 -26 77 -25 0 -28 -7
-28 -72 0 -10 -3 -15 -8 -13 -4 3 -6 14 -4 24 2 10 -1 24 -6 32 -6 10 -8 7 -5
-11 2 -14 -2 -31 -8 -39 -8 -11 -8 -13 2 -7 7 4 12 1 12 -9 0 -9 5 -13 10 -10
16 10 7 -18 -10 -33 -8 -8 -9 -11 -2 -7 6 3 12 1 12 -5 0 -6 5 -8 12 -4 7 4 8
3 4 -4 -4 -6 -14 -8 -22 -5 -14 5 -14 3 -6 -14 9 -16 8 -20 -6 -22 -46 -6 -75
-2 -83 10 -5 8 -9 53 -9 102 0 76 -2 87 -17 87 -10 0 -23 -4 -28 -8z"/>
<path d="M5790 3629 c0 -5 -4 -8 -9 -4 -5 3 -13 0 -17 -6 -4 -7 -3 -9 3 -6 6
4 14 0 17 -9 3 -8 2 -12 -4 -9 -6 3 -10 1 -10 -5 0 -6 -5 -8 -12 -4 -7 4 -8 3
-4 -5 4 -6 13 -8 19 -5 7 4 9 4 5 -1 -4 -4 -3 -14 2 -20 7 -9 6 -16 -4 -25
-13 -10 -15 -8 -11 9 2 12 0 21 -6 21 -10 0 -8 -28 5 -48 4 -7 5 -16 2 -19 -3
-3 -1 -14 4 -24 8 -13 6 -21 -7 -29 -15 -9 -14 -10 7 -6 14 3 19 3 13 0 -7 -3
-13 -15 -13 -25 0 -14 -4 -18 -12 -13 -9 5 -9 2 1 -9 7 -9 19 -17 25 -17 6 0
5 4 -3 9 -8 5 -9 11 -3 15 6 3 13 2 17 -4 13 -21 43 12 41 48 -2 39 6 48 24
27 7 -8 15 -13 19 -11 4 3 8 -4 9 -15 1 -10 3 -28 4 -39 1 -10 4 -17 7 -15 2
3 10 0 18 -6 8 -8 13 -8 13 -1 0 6 -6 12 -12 15 -10 4 -10 7 0 18 11 12 13 12
10 -1 -2 -10 7 -16 30 -18 40 -4 41 9 3 57 l-29 36 24 28 c30 35 31 80 2 107
-18 16 -35 20 -95 20 -45 0 -73 -4 -73 -11z m100 -42 c0 -5 -7 -7 -15 -4 -19
8 -30 -12 -16 -26 9 -9 11 -8 6 4 -5 13 -1 15 21 11 19 -3 25 -1 20 6 -5 8 -1
10 10 5 11 -4 13 -8 6 -11 -7 -2 -12 -8 -12 -13 0 -6 5 -7 12 -3 7 4 8 3 4 -5
-4 -6 -12 -9 -17 -6 -5 4 -9 1 -9 -5 0 -7 -13 -10 -32 -8 -24 2 -32 8 -33 26
-1 12 2 22 7 22 5 0 7 4 4 8 -2 4 6 8 20 8 13 0 24 -4 24 -9z"/>
<path d="M5499 3608 c-7 -25 -7 -48 0 -43 6 3 9 14 8 25 -1 17 -5 26 -8 18z"/>
<path d="M2946 3577 c3 -10 9 -15 12 -12 3 3 0 11 -7 18 -10 9 -11 8 -5 -6z"/>
<path d="M2980 3580 c8 -5 20 -10 25 -10 6 0 3 5 -5 10 -8 5 -19 10 -25 10 -5
0 -3 -5 5 -10z"/>
<path d="M4670 3578 c0 -4 4 -8 9 -8 6 0 12 4 15 8 3 5 -1 9 -9 9 -8 0 -15 -4
-15 -9z"/>
<path d="M2490 3560 c-8 -5 -19 -6 -25 -3 -5 4 -7 3 -3 -1 4 -5 3 -19 -2 -32
-6 -15 -6 -26 1 -30 6 -3 8 -12 5 -20 -3 -7 -1 -16 5 -19 5 -4 12 0 15 9 3 8
11 13 17 11 22 -8 49 22 45 51 -3 29 -35 48 -58 34z"/>
<path d="M3940 3560 c-8 -5 -18 -6 -24 -3 -5 3 -6 1 -2 -5 4 -7 3 -12 -2 -12
-5 0 -9 -6 -10 -12 -7 -56 -6 -63 7 -60 8 2 18 -3 22 -10 6 -8 9 -9 9 -2 0 6
-7 17 -15 24 -12 10 -15 10 -15 0 0 -8 -3 -11 -6 -7 -3 3 -3 11 1 17 5 8 10 8
20 0 26 -21 52 -19 65 5 7 13 10 30 7 39 -8 21 -41 36 -57 26z"/>
<path d="M3315 3539 c-4 -6 -5 -12 -2 -15 2 -3 7 2 10 11 7 17 1 20 -8 4z"/>
<path d="M3510 3540 c0 -5 5 -10 10 -10 6 0 10 5 10 10 0 6 -4 10 -10 10 -5 0
-10 -4 -10 -10z"/>
<path d="M4034 3534 c3 -9 6 -20 6 -25 0 -6 5 -7 10 -4 8 5 8 11 1 19 -6 7 -8
16 -4 19 3 4 1 7 -6 7 -8 0 -11 -6 -7 -16z"/>
<path d="M4273 3530 c1 -11 5 -20 9 -20 3 0 6 9 5 20 -1 11 -5 20 -9 20 -3 0
-6 -9 -5 -20z"/>
<path d="M2435 3513 c-3 -10 -1 -19 5 -21 7 -3 7 -9 -2 -20 -12 -15 -11 -16 5
-3 11 9 14 18 8 24 -5 5 -7 16 -4 23 3 8 3 14 0 14 -3 0 -8 -8 -12 -17z"/>
<path d="M3875 3520 c-3 -5 -1 -10 4 -10 6 0 11 5 11 10 0 6 -2 10 -4 10 -3 0
-8 -4 -11 -10z"/>
<path d="M5650 3520 c0 -5 5 -10 10 -10 6 0 10 5 10 10 0 6 -4 10 -10 10 -5 0
-10 -4 -10 -10z"/>
<path d="M2830 3482 c0 -5 7 -17 16 -28 15 -18 15 -18 5 2 -6 12 -7 24 -4 28
3 3 1 6 -5 6 -7 0 -12 -4 -12 -8z"/>
<path d="M2950 3478 c0 -4 4 -8 9 -8 6 0 12 4 15 8 3 5 -1 9 -9 9 -8 0 -15 -4
-15 -9z"/>
<path d="M4020 3478 c0 -4 5 -8 11 -8 5 0 7 -6 3 -12 -4 -7 -3 -9 1 -5 15 13
14 34 -1 34 -8 0 -14 -4 -14 -9z"/>
<path d="M4390 3478 c0 -4 4 -8 9 -8 6 0 12 4 15 8 3 5 -1 9 -9 9 -8 0 -15 -4
-15 -9z"/>
<path d="M1860 3460 c-8 -5 -10 -10 -5 -10 6 0 17 5 25 10 8 5 11 10 5 10 -5
0 -17 -5 -25 -10z"/>
<path d="M3510 3461 c0 -6 4 -12 8 -15 5 -3 9 1 9 9 0 8 -4 15 -9 15 -4 0 -8
-4 -8 -9z"/>
<path d="M4273 3450 c-1 -11 3 -22 8 -25 5 -4 6 -11 3 -17 -4 -7 -2 -8 5 -4 9
6 9 11 1 21 -7 8 -9 19 -6 24 4 5 3 12 -2 15 -4 2 -8 -4 -9 -14z"/>
<path d="M3606 3453 c6 -4 10 -25 9 -45 -3 -43 2 -48 14 -15 6 14 5 27 -3 36
-6 8 -10 17 -8 20 2 3 -2 7 -10 9 -9 2 -9 1 -2 -5z"/>
<path d="M5855 3440 c3 -5 8 -10 11 -10 2 0 4 5 4 10 0 6 -5 10 -11 10 -5 0
-7 -4 -4 -10z"/>
<path d="M2270 3436 c0 -3 9 -10 20 -16 11 -6 20 -8 20 -6 0 3 -9 10 -20 16
-11 6 -20 8 -20 6z"/>
<path d="M2316 3428 c3 -4 11 -5 19 -1 21 7 19 12 -4 10 -11 0 -18 -5 -15 -9z"/>
<path d="M4510 3431 c0 -6 6 -11 13 -11 8 0 7 -4 -3 -11 -12 -8 -10 -9 9 -4
14 5 21 3 17 -3 -3 -5 1 -15 8 -21 8 -7 17 -8 20 -3 3 5 -2 16 -12 24 -42 35
-52 40 -52 29z"/>
<path d="M2746 3405 c4 -8 11 -15 18 -15 6 0 4 -5 -4 -10 -12 -7 -10 -9 7 -7
l23 1 -22 23 c-25 27 -29 28 -22 8z"/>
<path d="M4040 3413 c7 -3 8 -9 1 -17 -8 -9 -7 -13 3 -13 17 0 14 30 -3 33 -7
2 -7 0 -1 -3z"/>
<path d="M4790 3401 c0 -5 7 -12 16 -15 14 -5 15 -4 4 9 -14 17 -20 19 -20 6z"/>
<path d="M5252 3386 c8 -14 13 -17 16 -8 3 10 7 10 20 0 14 -10 14 -9 -1 8
-24 28 -50 28 -35 0z"/>
<path d="M4201 3384 c0 -11 3 -14 6 -6 3 7 2 16 -1 19 -3 4 -6 -2 -5 -13z"/>
<path d="M1770 3380 c0 -5 5 -10 11 -10 5 0 7 5 4 10 -3 6 -8 10 -11 10 -2 0
-4 -4 -4 -10z"/>
<path d="M4660 3370 c-9 -6 -10 -10 -3 -10 6 0 15 5 18 10 8 12 4 12 -15 0z"/>
<path d="M5090 3370 c-9 -6 -10 -10 -3 -10 6 0 15 5 18 10 8 12 4 12 -15 0z"/>
<path d="M5610 3366 c0 -2 7 -7 16 -10 8 -3 12 -2 9 4 -6 10 -25 14 -25 6z"/>
<path d="M2980 3147 c0 -7 7 -23 17 -36 14 -20 14 -27 3 -45 -12 -18 -11 -19
2 -9 8 7 18 10 22 6 4 -4 4 1 0 12 -4 13 2 9 16 -10 41 -54 228 -198 283 -218
9 -4 16 -10 16 -14 -4 -17 14 -43 30 -43 14 1 14 2 -1 11 -27 15 -21 29 6 16
13 -7 22 -16 19 -21 -4 -5 1 -7 11 -3 10 4 19 1 22 -8 4 -8 10 -15 16 -15 5 0
7 4 4 9 -4 5 7 4 23 -2 17 -6 28 -14 25 -18 -2 -4 3 -10 12 -13 8 -3 13 -2 9
3 -3 5 3 8 12 6 10 -2 22 -4 26 -4 5 -1 5 -6 1 -12 -4 -8 -9 -7 -15 2 -6 10
-8 8 -7 -7 2 -18 5 -20 20 -10 10 6 18 14 18 19 0 4 5 5 10 2 6 -4 8 -11 5
-16 -3 -5 1 -6 10 -2 10 3 21 0 26 -8 6 -10 9 -10 9 -1 0 6 5 12 11 12 5 0 8
-4 4 -10 -3 -5 9 -8 30 -6 19 2 35 -1 35 -6 0 -6 -7 -8 -15 -4 -22 8 -18 -2 6
-15 17 -8 20 -8 14 1 -5 8 -3 11 6 8 8 -3 13 -11 11 -17 -1 -7 2 -9 8 -6 8 5
5 14 -7 27 -18 20 -17 21 2 11 11 -5 27 -9 35 -8 8 0 21 -6 28 -15 8 -8 11 -9
7 -2 -3 6 -2 12 2 12 5 0 15 -6 22 -12 10 -11 11 -10 6 2 -4 11 1 16 15 16 11
0 20 -4 20 -8 0 -4 -4 -8 -10 -8 -5 0 -10 -5 -10 -12 0 -6 12 -1 27 13 14 13
23 18 19 12 -9 -16 -1 -16 26 -2 18 10 20 9 15 -5 -3 -8 -1 -18 5 -22 7 -4 8
-3 4 4 -3 6 2 16 13 22 16 8 22 6 31 -7 11 -17 11 -17 6 0 -3 9 -1 17 4 17 6
0 10 -4 10 -10 0 -5 4 -10 10 -10 5 0 7 6 5 13 -3 8 6 13 25 14 16 1 30 -2 30
-8 0 -6 7 -3 16 5 19 19 40 21 47 4 3 -8 6 -6 6 5 1 20 17 23 24 5 4 -8 6 -7
6 4 1 11 9 15 30 14 16 -1 29 3 28 8 -1 6 4 10 12 8 8 -2 18 3 22 9 6 10 11
10 23 -1 14 -11 16 -10 9 6 -6 17 -5 18 11 5 14 -12 17 -12 14 -1 -2 8 2 14 7
15 6 0 21 8 35 17 14 9 31 18 39 20 8 2 23 11 33 21 10 10 23 15 28 12 6 -4
13 1 16 9 3 9 12 16 20 16 8 0 14 4 14 9 0 5 9 12 20 16 11 3 33 20 50 36 16
17 30 28 30 25 0 -6 98 95 135 139 25 29 25 30 4 33 -13 2 -29 -7 -44 -23 -12
-15 -28 -24 -34 -21 -7 5 -8 1 -4 -10 4 -11 3 -15 -5 -10 -6 3 -13 -2 -16 -12
-7 -21 -60 -72 -76 -72 -5 0 -10 -5 -10 -11 0 -5 -4 -7 -10 -4 -5 3 -10 -1
-10 -9 0 -14 -36 -33 -53 -28 -5 1 -5 -2 -2 -8 4 -7 -2 -14 -14 -17 -12 -3
-21 -10 -21 -15 0 -6 -7 -7 -16 -4 -8 3 -13 2 -10 -3 6 -9 -53 -38 -67 -33 -5
1 -6 -2 -2 -8 6 -9 -7 -14 -27 -11 -5 0 -8 -4 -8 -10 0 -6 -9 -9 -20 -6 -11 3
-18 1 -15 -3 4 -7 -90 -43 -150 -57 -264 -61 -540 -31 -766 83 -100 50 -194
119 -287 211 -85 83 -112 102 -112 80z"/>
<path d="M1196 3134 c-4 -10 -2 -13 7 -9 6 4 1 -3 -13 -15 -17 -15 -19 -20 -7
-16 9 3 25 9 35 12 11 4 8 -2 -8 -15 l-25 -20 23 4 c19 3 22 2 12 -10 -8 -10
-8 -15 0 -20 6 -4 9 -14 5 -23 -3 -9 -3 -13 1 -9 12 11 33 -13 27 -31 -4 -14
-3 -15 6 -2 7 11 6 19 -6 33 -13 14 -14 17 -2 12 8 -3 20 -15 27 -26 8 -12 9
-18 3 -14 -6 3 -11 1 -11 -4 0 -6 7 -11 16 -11 9 0 14 -7 13 -17 -4 -30 11
-52 29 -45 15 5 15 3 4 -11 -12 -14 -9 -18 16 -31 16 -8 33 -12 38 -8 5 4 3 0
-3 -8 -7 -10 -8 -21 -3 -30 5 -8 7 -17 4 -21 -2 -4 0 -10 5 -13 5 -4 13 -1 17
5 5 8 3 9 -6 4 -8 -5 -11 -4 -6 3 4 6 14 8 23 5 11 -4 13 -8 5 -11 -7 -2 -12
-10 -12 -18 0 -8 -5 -14 -12 -14 -6 0 -8 -3 -5 -6 4 -4 13 -2 20 4 16 13 28 6
21 -12 -3 -7 3 -19 13 -27 16 -13 17 -12 4 4 -12 15 -12 17 3 11 10 -4 15 -13
12 -20 -7 -18 3 -44 16 -44 6 0 5 6 -2 15 -8 9 -8 15 -2 15 15 0 20 -22 11
-47 -5 -15 -4 -23 6 -27 9 -3 12 0 9 8 -3 8 -1 17 5 21 7 4 8 0 4 -11 -5 -12
-3 -15 6 -9 10 6 11 3 2 -13 -14 -27 -14 -29 5 -36 10 -4 13 -2 8 7 -4 6 6 -1
22 -18 30 -30 37 -48 10 -26 -10 9 -15 8 -19 -3 -3 -8 1 -13 11 -12 12 1 16
-6 15 -24 -1 -14 1 -19 3 -12 3 6 10 12 15 12 6 0 7 -5 3 -12 -5 -8 -2 -9 10
-5 10 4 19 1 23 -9 3 -9 12 -13 21 -9 12 4 12 3 3 -8 -9 -12 -4 -14 29 -12 33
2 38 0 29 -12 -7 -7 -9 -16 -5 -20 3 -3 6 0 6 7 0 9 5 8 19 -4 14 -13 21 -14
27 -5 5 8 3 10 -7 4 -8 -5 -10 -4 -6 0 12 13 36 15 44 3 4 -7 1 -8 -8 -3 -11
6 -12 5 -2 -5 10 -11 15 -11 28 0 13 11 18 9 35 -10 11 -13 20 -28 20 -33 0
-6 7 -2 16 9 15 19 16 19 9 0 -6 -19 -5 -19 13 -3 18 17 32 14 32 -7 0 -6 -5
-4 -10 4 -8 13 -10 13 -10 -1 0 -9 7 -20 16 -23 8 -3 13 -2 10 3 -3 5 1 14 9
21 13 11 14 10 9 -4 -5 -12 -2 -15 12 -9 13 5 16 3 11 -10 -3 -9 -2 -17 3 -17
6 0 10 7 10 15 0 8 5 15 11 15 6 0 9 -7 6 -15 -4 -8 -1 -17 5 -21 6 -4 8 -3 5
3 -7 11 22 28 31 18 3 -3 0 -5 -6 -5 -7 0 -12 -5 -12 -10 0 -7 6 -8 17 -2 24
14 63 -5 56 -27 -4 -11 -1 -10 10 4 13 17 17 18 32 5 10 -8 20 -13 22 -12 3 2
7 1 10 -1 7 -8 -20 -3 -34 6 -12 8 -29 -10 -19 -20 3 -4 6 -1 6 6 0 7 5 9 13
4 18 -11 36 -12 43 -2 7 12 24 11 24 -2 0 -5 -6 -7 -12 -3 -9 5 -9 2 1 -9 15
-18 26 -23 16 -7 -3 6 3 10 14 10 12 0 21 -5 21 -11 0 -5 -4 -7 -10 -4 -5 3
-10 2 -10 -3 0 -5 13 -9 30 -9 26 0 28 2 12 14 -15 13 -15 13 5 3 12 -5 26 -9
30 -9 17 4 43 -14 43 -30 1 -14 2 -14 11 2 11 18 29 14 29 -6 0 -7 -4 -6 -10
3 -5 8 -10 10 -10 4 0 -6 10 -19 22 -30 13 -10 17 -12 11 -4 -8 10 -9 21 -3
30 8 13 10 12 10 -2 0 -10 5 -18 11 -18 5 0 7 4 4 10 -3 6 1 7 9 4 9 -3 16
-14 17 -23 0 -12 2 -12 9 4 8 18 9 18 9 2 1 -10 6 -15 11 -12 6 4 7 11 4 17
-4 7 -2 8 5 4 6 -4 9 -12 5 -17 -3 -6 5 -8 20 -5 29 5 33 -2 14 -24 -7 -8 -3
-6 9 3 16 14 23 15 29 6 4 -8 3 -10 -4 -5 -7 4 -12 2 -12 -4 0 -7 7 -9 16 -6
9 3 18 6 20 6 3 0 2 5 -2 11 -4 8 -1 8 14 0 14 -7 19 -17 15 -28 -4 -11 -3
-14 5 -9 7 4 12 3 12 -2 0 -5 7 -9 16 -9 15 0 15 1 0 12 -9 7 -16 16 -16 20 0
4 6 2 13 -4 8 -6 17 -8 20 -4 4 3 7 -1 7 -10 0 -9 5 -17 11 -17 5 0 8 4 5 8
-3 5 1 9 8 9 8 0 12 -6 9 -13 -2 -6 1 -15 8 -20 7 -4 10 -3 6 3 -4 6 -1 13 6
16 16 6 49 -17 39 -28 -4 -5 0 -4 8 1 24 14 38 13 51 -2 10 -12 14 -12 20 -2
7 10 9 9 9 -4 0 -10 -5 -18 -12 -18 -6 0 -8 -3 -5 -7 4 -3 17 2 28 13 l22 19
-13 -25 c-13 -25 -13 -25 8 -6 21 18 21 18 17 -3 -2 -12 0 -19 6 -16 5 4 9 14
10 23 0 11 2 12 6 4 2 -6 9 -10 14 -7 5 4 6 -1 3 -9 -3 -9 -11 -16 -17 -16 -6
0 -7 -3 -4 -7 4 -3 16 2 27 12 16 14 19 15 15 4 -4 -10 0 -16 9 -16 8 0 13 3
11 7 -2 3 6 6 18 7 12 0 16 -1 10 -4 -7 -3 -13 -9 -13 -14 0 -6 8 -5 20 1 16
9 20 8 20 -5 0 -16 3 -17 62 -17 23 0 35 -4 31 -11 -4 -6 2 -8 15 -5 13 4 29
-2 41 -14 14 -12 21 -15 22 -6 0 7 4 4 9 -7 l9 -20 1 20 c1 16 3 15 12 -7 8
-22 12 -25 23 -15 7 7 11 15 8 19 -2 4 3 5 12 2 8 -4 20 -15 26 -25 5 -11 14
-17 20 -14 5 4 9 2 9 -4 0 -5 8 -8 18 -6 9 2 17 4 17 5 0 1 10 3 21 6 13 2 28
-4 35 -14 12 -15 12 -16 -1 -6 -20 15 -47 14 -47 -3 0 -9 4 -10 14 -1 10 8 20
5 40 -13 15 -13 22 -17 15 -8 -10 14 -10 18 3 23 10 4 14 2 9 -5 -5 -8 3 -10
24 -7 25 4 29 2 21 -9 -14 -16 -5 -17 23 -2 15 8 19 8 14 0 -7 -11 -3 -12 47
-15 12 0 22 -6 22 -13 0 -6 4 -15 9 -20 5 -4 6 -3 2 4 -3 6 -2 14 4 18 5 3 10
-2 10 -12 0 -15 2 -16 10 -3 8 12 10 11 10 -7 0 -25 14 -30 26 -11 4 7 3 8 -4
4 -8 -5 -10 -2 -6 8 5 12 9 13 19 3 7 -7 11 -14 10 -17 -2 -3 0 -12 6 -20 5
-10 9 -10 9 -3 0 6 9 10 20 8 11 -2 18 0 16 4 -3 4 1 8 8 8 9 0 12 -7 8 -16
-5 -13 -3 -14 10 -3 13 10 18 10 30 -1 18 -19 61 -42 72 -39 4 2 15 -3 24 -10
12 -10 14 -10 8 0 -4 7 -2 12 4 12 6 0 8 5 4 12 -4 7 -3 8 5 4 6 -4 9 -12 6
-17 -4 -5 -1 -9 4 -9 6 0 11 6 11 13 0 7 3 8 8 2 4 -5 14 -12 22 -13 8 -2 12
0 7 4 -13 14 46 33 62 20 12 -9 13 -8 6 3 -6 11 -3 13 13 9 12 -4 25 -1 29 4
4 7 1 8 -7 3 -8 -5 -11 -4 -6 3 4 6 13 9 20 6 8 -3 17 -1 20 5 4 5 18 8 31 5
17 -3 27 1 31 11 5 13 9 13 22 3 9 -7 13 -8 9 -2 -3 6 4 16 18 22 18 8 26 8
31 0 5 -7 12 -5 21 7 7 11 13 15 13 11 0 -5 6 -4 13 3 8 6 23 9 36 6 12 -2 19
0 16 4 -3 5 7 12 23 17 39 11 46 11 54 -1 5 -6 8 -2 8 9 0 11 3 16 7 13 3 -4
13 -1 21 6 9 6 13 7 9 1 -3 -6 0 -11 7 -11 8 0 12 6 9 13 -3 8 4 11 21 10 14
-2 23 1 20 5 -3 5 -1 9 5 9 5 0 12 -6 14 -12 3 -8 6 -5 6 5 1 10 5 16 10 12 5
-3 13 0 16 6 4 5 13 8 21 5 8 -3 14 -1 14 5 0 6 4 8 9 4 5 -3 12 -1 15 4 4 5
17 8 31 7 14 -2 22 1 18 6 -3 6 3 7 16 3 13 -4 21 -2 21 5 0 6 5 8 10 5 6 -3
10 -1 10 6 0 8 5 7 17 -2 14 -12 16 -12 8 0 -6 11 -4 13 11 7 10 -4 15 -4 11
0 -13 14 46 33 62 20 11 -8 13 -8 7 2 -4 7 -1 12 8 12 26 0 30 1 43 12 7 6 20
8 28 4 9 -3 14 -2 11 3 -3 5 6 12 22 17 40 11 46 11 60 0 7 -5 12 -5 11 0 -3
19 1 34 12 34 5 0 7 -6 3 -12 -6 -10 -5 -10 8 -1 8 7 18 10 21 6 4 -3 7 -1 7
6 0 7 5 9 10 6 5 -3 10 -1 10 6 0 8 4 8 15 -1 12 -10 16 -9 21 4 5 13 9 14 20
5 12 -10 13 -8 8 7 -6 15 -4 17 6 7 11 -10 17 -9 32 4 14 13 20 13 33 3 13
-11 14 -10 9 5 -5 13 -4 16 4 11 7 -4 12 -3 12 3 0 5 9 8 19 6 11 -2 25 3 32
11 8 10 15 11 24 4 10 -8 15 -8 21 1 5 8 3 9 -6 4 -9 -5 -11 -4 -6 4 6 9 11 9
22 0 11 -9 15 -8 20 5 3 9 10 16 16 16 5 0 6 -6 3 -12 -4 -7 1 -4 10 7 9 11
18 19 20 18 3 -2 7 -2 10 -2 3 1 10 3 15 4 6 1 12 4 15 5 14 7 31 5 37 -5 5
-6 8 -3 8 6 0 20 44 31 60 15 8 -8 9 -6 4 8 -5 13 -4 17 4 12 6 -3 14 -2 17 4
4 6 16 8 27 4 14 -4 18 -2 14 5 -5 7 -1 9 8 5 9 -3 16 -2 16 4 0 6 8 9 18 8 9
-2 20 1 24 7 3 5 17 11 30 11 12 1 30 6 38 11 8 5 20 10 25 10 6 1 17 4 25 7
8 4 30 11 49 17 29 9 32 9 21 -4 -7 -8 -17 -12 -23 -8 -6 4 -7 1 -3 -6 6 -9
13 -8 28 6 11 10 22 16 23 13 2 -3 7 -1 12 4 5 5 3 6 -4 2 -7 -4 -13 -2 -13 5
0 6 8 9 20 6 11 -3 20 0 20 5 0 6 8 4 17 -3 10 -8 14 -9 10 -2 -10 17 13 28
24 12 6 -10 9 -10 9 -2 0 7 15 19 33 27 26 11 52 47 147 202 63 104 118 191
122 192 4 2 8 8 8 13 0 5 26 51 58 102 32 51 70 113 85 140 l28 47 -50 0 c-40
0 -55 -5 -78 -27 -15 -14 -22 -23 -14 -18 10 5 12 4 7 -3 -4 -7 -14 -12 -23
-12 -13 0 -14 -2 -2 -17 10 -11 10 -14 2 -9 -8 4 -13 1 -13 -9 0 -8 -10 -20
-22 -25 -13 -5 -17 -9 -10 -9 7 -1 10 -6 7 -11 -4 -6 -12 -7 -18 -3 -7 4 -5
-2 3 -12 14 -17 13 -18 -2 -12 -10 3 -18 2 -18 -3 0 -6 -9 -19 -21 -31 l-21
-21 21 7 c30 9 26 0 -11 -25 -18 -12 -25 -19 -15 -16 15 5 16 2 7 -14 -5 -10
-16 -22 -23 -26 -7 -5 -6 0 3 12 14 17 14 18 -2 6 -9 -8 -15 -19 -12 -27 3 -7
0 -16 -7 -21 -8 -5 -10 -3 -4 6 5 9 4 11 -4 6 -9 -6 -9 -11 -1 -21 9 -10 7
-16 -8 -24 -11 -6 -23 -7 -28 -3 -5 4 -2 -2 6 -12 14 -18 13 -19 -2 -13 -10 3
-20 1 -24 -5 -5 -7 -2 -8 6 -3 10 6 12 4 7 -9 -4 -10 -7 -22 -7 -28 0 -6 -7
-7 -16 -4 -9 3 -12 2 -9 -5 4 -5 1 -17 -7 -26 -7 -9 -13 -19 -12 -22 0 -3 -1
-14 -4 -24 -3 -14 -7 -15 -18 -6 -12 10 -13 8 -8 -6 5 -12 4 -16 -3 -12 -7 5
-9 0 -6 -13 3 -12 -1 -22 -11 -26 -9 -3 -13 -11 -9 -17 4 -6 0 -8 -11 -4 -10
4 -15 3 -11 -3 8 -13 -42 -33 -58 -23 -7 3 -9 2 -4 -2 7 -8 -152 -62 -195 -67
-10 -1 -18 -5 -18 -9 0 -6 -50 -19 -77 -20 -5 -1 -13 -5 -18 -9 -6 -5 -22 -11
-35 -14 -14 -2 -45 -12 -70 -20 -24 -9 -50 -14 -58 -11 -7 2 -10 0 -7 -5 3 -6
-1 -11 -9 -11 -25 -2 -30 -4 -43 -12 -7 -5 -17 -5 -23 -2 -5 3 -10 2 -10 -2 0
-15 -78 -31 -90 -19 -8 8 -11 7 -8 -3 2 -7 -8 -17 -22 -21 -14 -5 -96 -31
-183 -59 -87 -28 -165 -53 -175 -55 -9 -1 -30 -9 -47 -15 -16 -7 -40 -15 -52
-17 -12 -2 -33 -8 -47 -14 -13 -5 -27 -6 -30 -3 -3 4 -6 0 -6 -7 0 -7 -3 -11
-6 -7 -3 3 -29 -3 -57 -13 -91 -33 -292 -95 -304 -93 -7 0 -13 -4 -13 -10 0
-6 -3 -8 -6 -5 -3 4 -21 0 -40 -8 -19 -8 -39 -12 -44 -9 -6 4 -10 2 -10 -2 0
-6 -91 -38 -140 -49 -3 0 -18 -6 -35 -13 -16 -7 -54 -19 -85 -27 l-55 -15
-285 86 c-157 47 -402 122 -545 165 -143 43 -478 144 -745 225 -267 80 -528
160 -580 176 l-95 29 -195 294 -195 294 -51 1 c-38 1 -53 -3 -58 -15z m54 -80
c0 -8 -19 -13 -24 -6 -3 5 1 9 9 9 8 0 15 -2 15 -3z m65 -114 c-3 -5 -1 -10 6
-10 7 0 10 -3 6 -6 -9 -9 -28 6 -22 17 4 5 8 9 11 9 3 0 2 -4 -1 -10z m235
-324 c0 -2 -7 -7 -16 -10 -8 -3 -12 -2 -9 4 6 10 25 14 25 6z m1800 -661 c11
-13 10 -14 -4 -9 -9 3 -16 10 -16 15 0 13 6 11 20 -6z m380 -113 c0 -5 -7 -9
-15 -9 -8 0 -12 4 -9 9 3 4 9 8 15 8 5 0 9 -4 9 -8z m134 -48 c4 -11 0 -11
-19 2 -30 20 -31 24 -6 17 11 -3 22 -11 25 -19z"/>
<path d="M2572 3117 c-12 -6 -22 -14 -22 -20 0 -5 -6 -7 -14 -4 -10 4 -12 0
-8 -15 3 -14 1 -19 -6 -14 -19 11 -14 -5 6 -21 9 -8 12 -12 6 -9 -7 3 -11 -2
-10 -12 0 -9 -5 -16 -12 -14 -8 1 -11 -2 -7 -8 5 -8 13 -6 24 4 19 17 18 19
23 -31 1 -13 5 -12 20 7 10 12 18 17 18 10 0 -10 3 -10 15 0 8 7 15 9 15 6 0
-11 25 16 39 42 26 48 -34 103 -87 79z"/>
<path d="M2960 3120 c0 -5 5 -10 11 -10 5 0 7 5 4 10 -3 6 -8 10 -11 10 -2 0
-4 -4 -4 -10z"/>
<path d="M5210 3122 c-8 -3 -19 -11 -23 -19 -5 -7 -14 -10 -20 -7 -7 4 -9 4
-5 -1 4 -4 -3 -16 -15 -26 -12 -10 -16 -18 -9 -19 6 0 12 5 12 10 0 6 4 10 9
10 5 0 7 -8 4 -19 -3 -10 0 -22 6 -25 5 -4 8 -13 5 -20 -5 -14 10 -29 33 -32
7 -1 9 5 5 14 -5 15 -4 15 11 3 9 -7 17 -9 17 -3 0 5 9 12 20 15 29 8 45 56
28 86 -13 25 -52 41 -78 33z m-13 -127 c0 -8 -4 -12 -9 -9 -5 3 -6 10 -3 15 9
13 12 11 12 -6z"/>
<path d="M2978 3093 c10 -4 10 -8 0 -21 -12 -15 -11 -16 4 -3 19 14 15 32 -5
30 -8 0 -8 -2 1 -6z"/>
<path d="M3023 3053 c-7 -3 -13 -9 -13 -14 0 -5 6 -8 13 -6 6 1 11 -4 9 -11
-1 -8 2 -11 8 -7 7 4 34 -17 62 -46 28 -30 58 -52 67 -51 13 3 13 1 1 -15 -10
-13 -11 -15 -1 -6 11 9 18 7 33 -10 11 -12 16 -16 12 -8 -4 9 -2 12 7 9 8 -3
13 -11 12 -17 -2 -6 3 -10 10 -8 6 1 11 -3 10 -10 -2 -8 4 -10 14 -6 9 4 14 2
10 -3 -3 -6 3 -11 14 -11 10 -1 19 0 19 1 0 9 -140 96 -151 94 -6 -2 -14 3
-17 11 -3 10 0 11 9 5 12 -7 12 -5 1 9 -8 9 -17 15 -22 14 -4 -1 -16 7 -26 19
-11 11 -29 26 -42 33 -12 7 -20 16 -17 21 7 11 -6 19 -22 13z"/>
<path d="M4616 3043 c-6 -14 -5 -15 5 -6 7 7 10 15 7 18 -3 3 -9 -2 -12 -12z"/>
<path d="M5134 3029 c-4 -7 -3 -9 4 -5 5 3 12 0 15 -6 2 -7 7 -10 11 -7 4 3 0
12 -8 18 -11 9 -16 9 -22 0z"/>
<path d="M5031 2964 c13 -14 43 -46 67 -71 23 -24 40 -49 37 -54 -4 -5 1 -6
10 -3 13 6 7 16 -32 57 -26 27 -58 60 -71 73 -31 33 -42 31 -11 -2z"/>
<path d="M2757 2944 c-15 -14 -32 -22 -39 -18 -7 4 -8 3 -4 -5 5 -7 -5 -25
-26 -45 -44 -43 -62 -66 -52 -66 7 0 154 148 154 156 0 7 -5 4 -33 -22z"/>
<path d="M3075 2960 c3 -5 8 -10 11 -10 2 0 4 5 4 10 0 6 -5 10 -11 10 -5 0
-7 -4 -4 -10z"/>
<path d="M2859 2860 c-14 -15 -29 -35 -32 -44 -4 -10 -12 -14 -18 -10 -7 4 -9
3 -6 -2 3 -5 -8 -25 -24 -43 -16 -19 -29 -38 -29 -44 0 -5 10 1 23 15 53 61
77 91 77 99 0 5 3 9 8 9 8 0 35 40 30 45 -2 1 -15 -10 -29 -25z"/>
<path d="M4920 2885 c0 -3 9 -15 20 -27 10 -12 16 -26 13 -32 -3 -6 -2 -8 2
-3 12 10 46 -23 38 -37 -3 -6 -3 -8 2 -4 9 8 35 -15 35 -31 0 -6 5 -11 10 -11
19 0 10 15 -45 75 -30 32 -55 63 -55 67 0 4 -4 8 -10 8 -5 0 -10 -2 -10 -5z"/>
<path d="M1350 2839 c0 -5 5 -7 10 -4 6 3 10 8 10 11 0 2 -4 4 -10 4 -5 0 -10
-5 -10 -11z"/>
<path d="M3316 2807 c3 -10 9 -15 12 -12 3 3 0 11 -7 18 -10 9 -11 8 -5 -6z"/>
<path d="M4819 2793 c6 -12 15 -23 20 -25 5 -1 11 -10 13 -18 2 -8 15 -26 29
-40 15 -14 32 -36 39 -48 6 -13 14 -21 17 -18 6 6 -45 78 -59 84 -4 2 -8 9 -8
16 0 7 -14 25 -31 42 -25 23 -29 25 -20 7z"/>
<path d="M2949 2750 c-17 -27 -35 -47 -39 -45 -4 3 -7 -3 -6 -13 0 -10 -5 -16
-14 -14 -8 2 -12 0 -8 -3 4 -4 3 -17 -3 -29 -15 -31 50 44 68 79 9 17 19 32
22 35 18 14 32 40 23 40 -6 0 -25 -22 -43 -50z"/>
<path d="M3455 2759 c-6 -8 -4 -10 5 -4 10 6 12 4 6 -11 -6 -15 -5 -17 5 -6 9
9 10 15 2 23 -8 8 -13 7 -18 -2z"/>
<path d="M3087 2710 c-9 -11 -17 -24 -17 -30 0 -5 -8 -14 -17 -19 -10 -6 -15
-11 -10 -11 4 0 -3 -17 -16 -37 -37 -61 -39 -63 -30 -63 5 0 23 24 39 53 17
28 41 69 53 90 25 41 25 48 -2 17z"/>
<path d="M4713 2713 c9 -11 17 -25 17 -31 0 -7 5 -12 10 -12 6 0 10 -9 10 -20
0 -11 6 -19 13 -17 6 1 11 -4 10 -10 -2 -7 2 -13 7 -13 6 0 10 -6 10 -14 0 -7
7 -19 15 -26 13 -11 14 -10 8 6 -11 30 -94 149 -107 153 -6 2 -3 -5 7 -16z"/>
<path d="M3591 2707 c-8 -10 -7 -14 2 -14 8 0 14 6 14 14 0 7 -1 13 -2 13 -2
0 -8 -6 -14 -13z"/>
<path d="M3760 2686 c0 -2 7 -7 16 -10 8 -3 12 -2 9 4 -6 10 -25 14 -25 6z"/>
<path d="M6090 2681 c0 -6 4 -13 10 -16 6 -3 7 1 4 9 -7 18 -14 21 -14 7z"/>
<path d="M3202 2638 c-48 -79 -90 -166 -77 -161 8 2 17 14 21 25 3 12 18 42
33 67 47 82 67 141 23 69z"/>
<path d="M4590 2666 c0 -12 54 -111 63 -114 4 -2 7 -9 7 -16 0 -7 9 -23 20
-36 31 -36 24 -19 -31 77 -54 93 -59 101 -59 89z"/>
<path d="M3320 2583 c-15 -31 -17 -37 -19 -57 0 -8 -9 -22 -18 -32 -9 -9 -18
-24 -19 -33 -1 -9 -5 -25 -9 -36 -7 -20 -6 -20 9 -1 18 22 79 176 73 182 -2 2
-10 -8 -17 -23z"/>
<path d="M4470 2600 c0 -5 5 -10 10 -10 6 0 10 5 10 10 0 6 -4 10 -10 10 -5 0
-10 -4 -10 -10z"/>
<path d="M4491 2563 c-1 -12 4 -25 9 -28 6 -4 8 -11 5 -16 -4 -5 -2 -9 3 -9 5
0 17 -20 26 -45 10 -25 22 -45 27 -45 5 0 -6 30 -24 68 -19 37 -37 74 -40 82
-4 10 -6 8 -6 -7z"/>
<path d="M3446 2529 c-3 -8 -13 -36 -22 -64 -9 -27 -24 -56 -33 -63 -9 -7 -10
-10 -2 -6 10 5 11 1 6 -15 -3 -11 -3 -21 2 -21 9 0 65 172 58 179 -3 2 -7 -2
-9 -10z"/>
<path d="M4360 2533 c0 -19 36 -113 44 -113 4 0 5 8 1 18 -4 9 -14 36 -22 60
-13 38 -23 53 -23 35z"/>
<path d="M3576 2498 c-8 -31 -8 -43 1 -34 8 8 16 56 10 56 -3 0 -7 -10 -11
-22z"/>
<path d="M4235 2480 c2 -24 8 -46 14 -48 8 -3 10 5 5 25 -14 59 -22 68 -19 23z"/>
<path d="M3706 2468 c-12 -65 -19 -113 -19 -128 0 -8 -4 -21 -10 -27 -7 -9 -5
-13 5 -13 8 0 15 6 15 13 0 6 3 32 7 57 15 106 17 130 13 130 -3 0 -7 -15 -11
-32z"/>
<path d="M4104 2465 c3 -22 8 -64 11 -94 4 -30 11 -63 16 -75 6 -15 7 -10 3
19 -3 22 -7 56 -10 75 -9 73 -15 104 -20 109 -3 3 -3 -12 0 -34z"/>
<path d="M1610 2478 c0 -9 5 -20 10 -23 13 -8 13 5 0 25 -8 13 -10 13 -10 -2z"/>
<path d="M3839 2483 c-5 -45 -4 -73 3 -73 4 0 8 18 8 40 0 22 -2 40 -5 40 -3
0 -5 -3 -6 -7z"/>
<path d="M1670 2439 c0 -5 5 -7 10 -4 6 3 10 8 10 11 0 2 -4 4 -10 4 -5 0 -10
-5 -10 -11z"/>
<path d="M3560 2434 c0 -8 5 -12 10 -9 6 3 10 10 10 16 0 5 -4 9 -10 9 -5 0
-10 -7 -10 -16z"/>
<path d="M3970 2420 c0 -16 4 -30 8 -30 4 0 8 14 7 30 0 17 -3 30 -7 30 -5 0
-8 -13 -8 -30z"/>
<path d="M1810 2411 c0 -5 7 -15 17 -22 15 -13 15 -12 4 9 -12 23 -21 28 -21
13z"/>
<path d="M4255 2390 c1 -17 5 -33 9 -37 3 -3 6 -16 6 -27 0 -17 2 -18 9 -7 6
9 6 22 0 32 -5 10 -9 27 -9 38 0 11 -4 22 -9 25 -5 3 -8 -8 -6 -24z"/>
<path d="M3550 2400 c0 -5 0 -11 1 -12 0 -2 -4 -15 -10 -30 -6 -15 -7 -30 -2
-32 4 -3 12 15 18 39 6 25 6 45 2 45 -5 0 -9 -4 -9 -10z"/>
<path d="M4408 2385 c2 -14 8 -25 12 -25 4 0 5 11 2 25 -2 14 -8 25 -12 25 -4
0 -5 -11 -2 -25z"/>
<path d="M3833 2385 c0 -8 4 -12 9 -9 4 3 8 9 8 15 0 5 -4 9 -8 9 -5 0 -9 -7
-9 -15z"/>
<path d="M3974 2335 c1 -24 5 -47 9 -51 4 -4 6 14 6 40 -1 26 -6 49 -10 51 -4
3 -6 -15 -5 -40z"/>
<path d="M3830 2318 c0 -23 2 -39 5 -36 9 9 12 78 3 78 -4 0 -8 -19 -8 -42z"/>
<path d="M2055 2330 c-3 -5 -5 -10 -3 -11 33 -8 38 -7 27 7 -14 17 -16 17 -24
4z"/>
<path d="M2299 2253 c-13 -16 -12 -17 3 -5 14 11 18 10 27 -5 6 -10 11 -13 11
-7 0 6 -6 17 -14 23 -10 9 -17 7 -27 -6z"/>
<path d="M2585 2169 c-11 -16 -1 -19 13 -3 7 8 8 14 3 14 -5 0 -13 -5 -16 -11z"/>
<path d="M2733 2125 c0 -8 4 -15 9 -15 4 0 8 4 8 9 0 6 -4 12 -8 15 -5 3 -9
-1 -9 -9z"/>
<path d="M2786 2109 c3 -5 9 -7 14 -4 4 3 11 0 13 -5 3 -6 4 -5 3 1 -1 7 -10
13 -19 15 -9 1 -15 -2 -11 -7z"/>
<path d="M4829 2043 c-13 -16 -12 -17 4 -4 16 13 21 21 13 21 -2 0 -10 -8 -17
-17z"/>
<path d="M3150 2001 c0 -10 19 -25 25 -20 1 2 -3 10 -11 17 -8 7 -14 8 -14 3z"/>
<path d="M3265 1960 c-3 -6 1 -7 9 -4 18 7 21 14 7 14 -6 0 -13 -4 -16 -10z"/>
<path d="M3570 1869 c0 -15 18 -19 23 -6 3 8 -1 14 -9 14 -8 0 -14 -4 -14 -8z"/>
<path d="M3996 1782 c-3 -5 1 -9 9 -9 8 0 12 4 9 9 -3 4 -7 8 -9 8 -2 0 -6 -4
-9 -8z"/>
</g>
</svg>
